<?xml version="1.0" encoding="UTF-8" standalone="no"?>
<!DOCTYPE svg PUBLIC "-//W3C//DTD SVG 1.1//EN"
 "http://www.w3.org/Graphics/SVG/1.1/DTD/svg11.dtd">
<!-- Generated by graphviz version 2.26.3 (20100126.1600)
 -->
<!-- Title: G Pages: 1 -->
<svg width="682pt" height="1960pt"
 viewBox="0.00 0.00 682.00 1960.00" xmlns="http://www.w3.org/2000/svg" xmlns:xlink="http://www.w3.org/1999/xlink">
<g id="graph1" class="graph" transform="scale(1 1) rotate(0) translate(4 1956)">
<title>G</title>
<polygon fill="white" stroke="white" points="-4,5 -4,-1956 679,-1956 679,5 -4,5"/>
<g id="graph2" class="cluster"><title>cluster_Altamira</title>
<polyline fill="none" stroke="gray" points="23,-44 654,-44 "/>
<path fill="none" stroke="gray" d="M654,-44C660,-44 666,-50 666,-56"/>
<polyline fill="none" stroke="gray" points="666,-56 666,-1932 "/>
<path fill="none" stroke="gray" d="M666,-1932C666,-1938 660,-1944 654,-1944"/>
<polyline fill="none" stroke="gray" points="654,-1944 23,-1944 "/>
<path fill="none" stroke="gray" d="M23,-1944C17,-1944 11,-1938 11,-1932"/>
<polyline fill="none" stroke="gray" points="11,-1932 11,-56 "/>
<path fill="none" stroke="gray" d="M11,-56C11,-50 17,-44 23,-44"/>
<text text-anchor="middle" x="338.5" y="-1930.1" font-family="Times Roman,serif" font-size="11.00" fill="gray">Altamira</text>
</g>
<g id="graph3" class="cluster"><title>cluster_Altamira\ChartDatum</title>
<polyline fill="none" stroke="gray" points="240,-1678 646,-1678 "/>
<path fill="none" stroke="gray" d="M646,-1678C652,-1678 658,-1684 658,-1690"/>
<polyline fill="none" stroke="gray" points="658,-1690 658,-1902 "/>
<path fill="none" stroke="gray" d="M658,-1902C658,-1908 652,-1914 646,-1914"/>
<polyline fill="none" stroke="gray" points="646,-1914 240,-1914 "/>
<path fill="none" stroke="gray" d="M240,-1914C234,-1914 228,-1908 228,-1902"/>
<polyline fill="none" stroke="gray" points="228,-1902 228,-1690 "/>
<path fill="none" stroke="gray" d="M228,-1690C228,-1684 234,-1678 240,-1678"/>
<text text-anchor="middle" x="443" y="-1900.1" font-family="Times Roman,serif" font-size="11.00" fill="gray">ChartDatum</text>
</g>
<g id="graph4" class="cluster"><title>cluster_Altamira\ChartRenderer</title>
<polyline fill="none" stroke="gray" points="244,-1542 609,-1542 "/>
<path fill="none" stroke="gray" d="M609,-1542C615,-1542 621,-1548 621,-1554"/>
<polyline fill="none" stroke="gray" points="621,-1554 621,-1658 "/>
<path fill="none" stroke="gray" d="M621,-1658C621,-1664 615,-1670 609,-1670"/>
<polyline fill="none" stroke="gray" points="609,-1670 244,-1670 "/>
<path fill="none" stroke="gray" d="M244,-1670C238,-1670 232,-1664 232,-1658"/>
<polyline fill="none" stroke="gray" points="232,-1658 232,-1554 "/>
<path fill="none" stroke="gray" d="M232,-1554C232,-1548 238,-1542 244,-1542"/>
<text text-anchor="middle" x="426.5" y="-1656.1" font-family="Times Roman,serif" font-size="11.00" fill="gray">ChartRenderer</text>
</g>
<g id="graph5" class="cluster"><title>cluster_Altamira\JsWriter</title>
<polyline fill="none" stroke="gray" points="247,-892 579,-892 "/>
<path fill="none" stroke="gray" d="M579,-892C585,-892 591,-898 591,-904"/>
<polyline fill="none" stroke="gray" points="591,-904 591,-1522 "/>
<path fill="none" stroke="gray" d="M591,-1522C591,-1528 585,-1534 579,-1534"/>
<polyline fill="none" stroke="gray" points="579,-1534 247,-1534 "/>
<path fill="none" stroke="gray" d="M247,-1534C241,-1534 235,-1528 235,-1522"/>
<polyline fill="none" stroke="gray" points="235,-1522 235,-904 "/>
<path fill="none" stroke="gray" d="M235,-904C235,-898 241,-892 247,-892"/>
<text text-anchor="middle" x="413" y="-1520.1" font-family="Times Roman,serif" font-size="11.00" fill="gray">JsWriter</text>
</g>
<g id="graph6" class="cluster"><title>cluster_Altamira\JsWriter\Ability</title>
<polyline fill="none" stroke="gray" points="258,-900 354,-900 "/>
<path fill="none" stroke="gray" d="M354,-900C360,-900 366,-906 366,-912"/>
<polyline fill="none" stroke="gray" points="366,-912 366,-1448 "/>
<path fill="none" stroke="gray" d="M366,-1448C366,-1454 360,-1460 354,-1460"/>
<polyline fill="none" stroke="gray" points="354,-1460 258,-1460 "/>
<path fill="none" stroke="gray" d="M258,-1460C252,-1460 246,-1454 246,-1448"/>
<polyline fill="none" stroke="gray" points="246,-1448 246,-912 "/>
<path fill="none" stroke="gray" d="M246,-912C246,-906 252,-900 258,-900"/>
<text text-anchor="middle" x="306" y="-1446.1" font-family="Times Roman,serif" font-size="11.00" fill="gray">Ability</text>
</g>
<g id="graph8" class="cluster"><title>cluster_Altamira\Type</title>
<polyline fill="none" stroke="gray" points="31,-420 590,-420 "/>
<path fill="none" stroke="gray" d="M590,-420C596,-420 602,-426 602,-432"/>
<polyline fill="none" stroke="gray" points="602,-432 602,-872 "/>
<path fill="none" stroke="gray" d="M602,-872C602,-878 596,-884 590,-884"/>
<polyline fill="none" stroke="gray" points="590,-884 31,-884 "/>
<path fill="none" stroke="gray" d="M31,-884C25,-884 19,-878 19,-872"/>
<polyline fill="none" stroke="gray" points="19,-872 19,-432 "/>
<path fill="none" stroke="gray" d="M19,-432C19,-426 25,-420 31,-420"/>
<text text-anchor="middle" x="310.5" y="-870.1" font-family="Times Roman,serif" font-size="11.00" fill="gray">Type</text>
</g>
<g id="graph9" class="cluster"><title>cluster_Altamira\Type\Flot</title>
<polyline fill="none" stroke="gray" points="283,-672 579,-672 "/>
<path fill="none" stroke="gray" d="M579,-672C585,-672 591,-678 591,-684"/>
<polyline fill="none" stroke="gray" points="591,-684 591,-842 "/>
<path fill="none" stroke="gray" d="M591,-842C591,-848 585,-854 579,-854"/>
<polyline fill="none" stroke="gray" points="579,-854 283,-854 "/>
<path fill="none" stroke="gray" d="M283,-854C277,-854 271,-848 271,-842"/>
<polyline fill="none" stroke="gray" points="271,-842 271,-684 "/>
<path fill="none" stroke="gray" d="M271,-684C271,-678 277,-672 283,-672"/>
<text text-anchor="middle" x="431" y="-840.1" font-family="Times Roman,serif" font-size="11.00" fill="gray">Flot</text>
</g>
<g id="graph10" class="cluster"><title>cluster_Altamira\Type\JqPlot</title>
<polyline fill="none" stroke="gray" points="283,-428 582,-428 "/>
<path fill="none" stroke="gray" d="M582,-428C588,-428 594,-434 594,-440"/>
<polyline fill="none" stroke="gray" points="594,-440 594,-652 "/>
<path fill="none" stroke="gray" d="M594,-652C594,-658 588,-664 582,-664"/>
<polyline fill="none" stroke="gray" points="582,-664 283,-664 "/>
<path fill="none" stroke="gray" d="M283,-664C277,-664 271,-658 271,-652"/>
<polyline fill="none" stroke="gray" points="271,-652 271,-440 "/>
<path fill="none" stroke="gray" d="M271,-440C271,-434 277,-428 283,-428"/>
<text text-anchor="middle" x="432.5" y="-650.1" font-family="Times Roman,serif" font-size="11.00" fill="gray">JqPlot</text>
</g>
<!-- \\Altamira\\ChartDatum\\TwoDimensionalPointFactory -->
<g id="node3" class="node"><title>\\Altamira\\ChartDatum\\TwoDimensionalPointFactory</title>
<a xlink:href="ChartDatum.TwoDimensionalPointFactory.html" xlink:title="TwoDimensionalPointFactory" target="_parent">
<polygon fill="none" stroke="black" points="650,-1884 458,-1884 458,-1848 650,-1848 650,-1884"/>
<text text-anchor="middle" x="554" y="-1863.1" font-family="Courier,monospace" font-size="11.00">TwoDimensionalPointFactory</text>
</a>
</g>
<!-- \\Altamira\\ChartDatum\\Bubble -->
<g id="node4" class="node"><title>\\Altamira\\ChartDatum\\Bubble</title>
<a xlink:href="ChartDatum.Bubble.html" xlink:title="Bubble" target="_parent">
<polygon fill="none" stroke="black" points="582,-1830 526,-1830 526,-1794 582,-1794 582,-1830"/>
<text text-anchor="middle" x="554" y="-1809.1" font-family="Courier,monospace" font-size="11.00">Bubble</text>
</a>
</g>
<!-- \\Altamira\\ChartDatum\\ChartDatumAbstract -->
<g id="node6" class="node"><title>\\Altamira\\ChartDatum\\ChartDatumAbstract</title>
<a xlink:href="ChartDatum.ChartDatumAbstract.html" xlink:title="«abstract»&lt;br/&gt;ChartDatumAbstract" target="_parent">
<polygon fill="none" stroke="black" points="375,-1776 237,-1776 237,-1740 375,-1740 375,-1776"/>
<text text-anchor="start" x="272" y="-1763.43" font-family="Courier,monospace" font-size="11.00">«abstract»</text>
<text text-anchor="start" x="245" y="-1750.23" font-family="Courier,monospace" font-size="11.00">ChartDatumAbstract</text>
</a>
</g>
<!-- \\Altamira\\ChartDatum\\Bubble&#45;&gt;\\Altamira\\ChartDatum\\ChartDatumAbstract -->
<g id="edge39" class="edge"><title>\\Altamira\\ChartDatum\\Bubble&#45;&gt;\\Altamira\\ChartDatum\\ChartDatumAbstract</title>
<path fill="none" stroke="black" d="M525.066,-1805.7C491.069,-1798.3 433.245,-1785.71 385.54,-1775.32"/>
<polygon fill="none" stroke="black" points="386.042,-1771.85 375.526,-1773.14 384.553,-1778.69 386.042,-1771.85"/>
</g>
<!-- \\Altamira\\ChartDatum\\TwoDimensionalPoint -->
<g id="node5" class="node"><title>\\Altamira\\ChartDatum\\TwoDimensionalPoint</title>
<a xlink:href="ChartDatum.TwoDimensionalPoint.html" xlink:title="TwoDimensionalPoint" target="_parent">
<polygon fill="none" stroke="black" points="626,-1776 482,-1776 482,-1740 626,-1740 626,-1776"/>
<text text-anchor="middle" x="554" y="-1755.1" font-family="Courier,monospace" font-size="11.00">TwoDimensionalPoint</text>
</a>
</g>
<!-- \\Altamira\\ChartDatum\\TwoDimensionalPoint&#45;&gt;\\Altamira\\ChartDatum\\ChartDatumAbstract -->
<g id="edge41" class="edge"><title>\\Altamira\\ChartDatum\\TwoDimensionalPoint&#45;&gt;\\Altamira\\ChartDatum\\ChartDatumAbstract</title>
<path fill="none" stroke="black" d="M481.268,-1758C451.348,-1758 416.596,-1758 385.964,-1758"/>
<polygon fill="none" stroke="black" points="385.746,-1754.5 375.746,-1758 385.746,-1761.5 385.746,-1754.5"/>
</g>
<!-- \\ArrayAccess -->
<g id="node87" class="node"><title>\\ArrayAccess</title>
<ellipse fill="none" stroke="black" cx="77" cy="-18" rx="77.0746" ry="18.3848"/>
<text text-anchor="middle" x="77" y="-14.4" font-family="Times Roman,serif" font-size="14.00" fill="gray">\\ArrayAccess</text>
</g>
<!-- \\Altamira\\ChartDatum\\ChartDatumAbstract&#45;&gt;\\ArrayAccess -->
<g id="edge89" class="edge"><title>\\Altamira\\ChartDatum\\ChartDatumAbstract&#45;&gt;\\ArrayAccess</title>
<path fill="none" stroke="black" stroke-dasharray="1,5" d="M280.86,-1739.74C262.072,-1724.5 237.696,-1700.98 226,-1674 114.617,-1417.09 188.671,-693.858 154,-416 136.5,-275.753 99.0725,-110.624 83.7509,-45.9543"/>
<polygon fill="none" stroke="black" points="87.1277,-45.0256 81.4048,-36.1094 80.3184,-46.6484 87.1277,-45.0256"/>
</g>
<!-- \\Altamira\\ChartDatum\\BubbleFactory -->
<g id="node7" class="node"><title>\\Altamira\\ChartDatum\\BubbleFactory</title>
<a xlink:href="ChartDatum.BubbleFactory.html" xlink:title="BubbleFactory" target="_parent">
<polygon fill="none" stroke="black" points="606,-1722 502,-1722 502,-1686 606,-1686 606,-1722"/>
<text text-anchor="middle" x="554" y="-1701.1" font-family="Courier,monospace" font-size="11.00">BubbleFactory</text>
</a>
</g>
<!-- \\Altamira\\ChartRenderer\\TitleRenderer -->
<g id="node9" class="node"><title>\\Altamira\\ChartRenderer\\TitleRenderer</title>
<a xlink:href="ChartRenderer.TitleRenderer.html" xlink:title="TitleRenderer" target="_parent">
<polygon fill="none" stroke="black" points="606,-1640 502,-1640 502,-1604 606,-1604 606,-1640"/>
<text text-anchor="middle" x="554" y="-1619.1" font-family="Courier,monospace" font-size="11.00">TitleRenderer</text>
</a>
</g>
<!-- \\Altamira\\ChartRenderer\\RendererInterface -->
<g id="node10" class="node"><title>\\Altamira\\ChartRenderer\\RendererInterface</title>
<a xlink:href="ChartRenderer.RendererInterface.html" xlink:title="RendererInterface" target="_parent">
<polygon fill="none" stroke="black" points="371,-1613 241,-1613 241,-1577 371,-1577 371,-1613"/>
<text text-anchor="middle" x="306" y="-1592.1" font-family="Courier,monospace" font-size="11.00">RendererInterface</text>
</a>
</g>
<!-- \\Altamira\\ChartRenderer\\TitleRenderer&#45;&gt;\\Altamira\\ChartRenderer\\RendererInterface -->
<g id="edge85" class="edge"><title>\\Altamira\\ChartRenderer\\TitleRenderer&#45;&gt;\\Altamira\\ChartRenderer\\RendererInterface</title>
<path fill="none" stroke="black" stroke-dasharray="1,5" d="M501.709,-1616.31C467.008,-1612.53 420.893,-1607.51 382.143,-1603.29"/>
<polygon fill="none" stroke="black" points="382.264,-1599.78 371.944,-1602.18 381.507,-1606.74 382.264,-1599.78"/>
</g>
<!-- \\Altamira\\ChartRenderer\\DefaultRenderer -->
<g id="node11" class="node"><title>\\Altamira\\ChartRenderer\\DefaultRenderer</title>
<a xlink:href="ChartRenderer.DefaultRenderer.html" xlink:title="DefaultRenderer" target="_parent">
<polygon fill="none" stroke="black" points="613,-1586 495,-1586 495,-1550 613,-1550 613,-1586"/>
<text text-anchor="middle" x="554" y="-1565.1" font-family="Courier,monospace" font-size="11.00">DefaultRenderer</text>
</a>
</g>
<!-- \\Altamira\\ChartRenderer\\DefaultRenderer&#45;&gt;\\Altamira\\ChartRenderer\\RendererInterface -->
<g id="edge87" class="edge"><title>\\Altamira\\ChartRenderer\\DefaultRenderer&#45;&gt;\\Altamira\\ChartRenderer\\RendererInterface</title>
<path fill="none" stroke="black" stroke-dasharray="1,5" d="M494.913,-1574.43C460.995,-1578.13 418.054,-1582.8 381.685,-1586.76"/>
<polygon fill="none" stroke="black" points="381.177,-1583.29 371.615,-1587.86 381.935,-1590.25 381.177,-1583.29"/>
</g>
<!-- \\Altamira\\JsWriter\\Ability\\Lineable -->
<g id="node14" class="node"><title>\\Altamira\\JsWriter\\Ability\\Lineable</title>
<a xlink:href="JsWriter.Ability.Lineable.html" xlink:title="Lineable" target="_parent">
<polygon fill="none" stroke="black" points="341,-1430 271,-1430 271,-1394 341,-1394 341,-1430"/>
<text text-anchor="middle" x="306" y="-1409.1" font-family="Courier,monospace" font-size="11.00">Lineable</text>
</a>
</g>
<!-- \\Altamira\\JsWriter\\Ability\\Legendable -->
<g id="node15" class="node"><title>\\Altamira\\JsWriter\\Ability\\Legendable</title>
<a xlink:href="JsWriter.Ability.Legendable.html" xlink:title="Legendable" target="_parent">
<polygon fill="none" stroke="black" points="348,-1376 264,-1376 264,-1340 348,-1340 348,-1376"/>
<text text-anchor="middle" x="306" y="-1355.1" font-family="Courier,monospace" font-size="11.00">Legendable</text>
</a>
</g>
<!-- \\Altamira\\JsWriter\\Ability\\Cursorable -->
<g id="node16" class="node"><title>\\Altamira\\JsWriter\\Ability\\Cursorable</title>
<a xlink:href="JsWriter.Ability.Cursorable.html" xlink:title="Cursorable" target="_parent">
<polygon fill="none" stroke="black" points="348,-1322 264,-1322 264,-1286 348,-1286 348,-1322"/>
<text text-anchor="middle" x="306" y="-1301.1" font-family="Courier,monospace" font-size="11.00">Cursorable</text>
</a>
</g>
<!-- \\Altamira\\JsWriter\\Ability\\Shadowable -->
<g id="node17" class="node"><title>\\Altamira\\JsWriter\\Ability\\Shadowable</title>
<a xlink:href="JsWriter.Ability.Shadowable.html" xlink:title="Shadowable" target="_parent">
<polygon fill="none" stroke="black" points="348,-1268 264,-1268 264,-1232 348,-1232 348,-1268"/>
<text text-anchor="middle" x="306" y="-1247.1" font-family="Courier,monospace" font-size="11.00">Shadowable</text>
</a>
</g>
<!-- \\Altamira\\JsWriter\\Ability\\Zoomable -->
<g id="node18" class="node"><title>\\Altamira\\JsWriter\\Ability\\Zoomable</title>
<a xlink:href="JsWriter.Ability.Zoomable.html" xlink:title="Zoomable" target="_parent">
<polygon fill="none" stroke="black" points="341,-944 271,-944 271,-908 341,-908 341,-944"/>
<text text-anchor="middle" x="306" y="-923.1" font-family="Courier,monospace" font-size="11.00">Zoomable</text>
</a>
</g>
<!-- \\Altamira\\JsWriter\\Ability\\Labelable -->
<g id="node19" class="node"><title>\\Altamira\\JsWriter\\Ability\\Labelable</title>
<a xlink:href="JsWriter.Ability.Labelable.html" xlink:title="Labelable" target="_parent">
<polygon fill="none" stroke="black" points="344,-1214 268,-1214 268,-1178 344,-1178 344,-1214"/>
<text text-anchor="middle" x="306" y="-1193.1" font-family="Courier,monospace" font-size="11.00">Labelable</text>
</a>
</g>
<!-- \\Altamira\\JsWriter\\Ability\\Fillable -->
<g id="node20" class="node"><title>\\Altamira\\JsWriter\\Ability\\Fillable</title>
<a xlink:href="JsWriter.Ability.Fillable.html" xlink:title="Fillable" target="_parent">
<polygon fill="none" stroke="black" points="341,-1160 271,-1160 271,-1124 341,-1124 341,-1160"/>
<text text-anchor="middle" x="306" y="-1139.1" font-family="Courier,monospace" font-size="11.00">Fillable</text>
</a>
</g>
<!-- \\Altamira\\JsWriter\\Ability\\Griddable -->
<g id="node21" class="node"><title>\\Altamira\\JsWriter\\Ability\\Griddable</title>
<a xlink:href="JsWriter.Ability.Griddable.html" xlink:title="Griddable" target="_parent">
<polygon fill="none" stroke="black" points="344,-1106 268,-1106 268,-1070 344,-1070 344,-1106"/>
<text text-anchor="middle" x="306" y="-1085.1" font-family="Courier,monospace" font-size="11.00">Griddable</text>
</a>
</g>
<!-- \\Altamira\\JsWriter\\Ability\\Highlightable -->
<g id="node22" class="node"><title>\\Altamira\\JsWriter\\Ability\\Highlightable</title>
<a xlink:href="JsWriter.Ability.Highlightable.html" xlink:title="Highlightable" target="_parent">
<polygon fill="none" stroke="black" points="358,-1052 254,-1052 254,-1016 358,-1016 358,-1052"/>
<text text-anchor="middle" x="306" y="-1031.1" font-family="Courier,monospace" font-size="11.00">Highlightable</text>
</a>
</g>
<!-- \\Altamira\\JsWriter\\Ability\\Datable -->
<g id="node23" class="node"><title>\\Altamira\\JsWriter\\Ability\\Datable</title>
<a xlink:href="JsWriter.Ability.Datable.html" xlink:title="Datable" target="_parent">
<polygon fill="none" stroke="black" points="338,-998 274,-998 274,-962 338,-962 338,-998"/>
<text text-anchor="middle" x="306" y="-977.1" font-family="Courier,monospace" font-size="11.00">Datable</text>
</a>
</g>
<!-- \\Altamira\\JsWriter\\JsWriterAbstract -->
<g id="node24" class="node"><title>\\Altamira\\JsWriter\\JsWriterAbstract</title>
<a xlink:href="JsWriter.JsWriterAbstract.html" xlink:title="«abstract»&lt;br/&gt;JsWriterAbstract" target="_parent">
<polygon fill="none" stroke="black" points="369,-1504 243,-1504 243,-1468 369,-1468 369,-1504"/>
<text text-anchor="start" x="272" y="-1491.43" font-family="Courier,monospace" font-size="11.00">«abstract»</text>
<text text-anchor="start" x="251.5" y="-1478.23" font-family="Courier,monospace" font-size="11.00">JsWriterAbstract</text>
</a>
</g>
<!-- \\Altamira\\JsWriter\\JqPlot -->
<g id="node25" class="node"><title>\\Altamira\\JsWriter\\JqPlot</title>
<a xlink:href="JsWriter.JqPlot.html" xlink:title="JqPlot" target="_parent">
<polygon fill="none" stroke="black" points="582,-1268 526,-1268 526,-1232 582,-1232 582,-1268"/>
<text text-anchor="middle" x="554" y="-1247.1" font-family="Courier,monospace" font-size="11.00">JqPlot</text>
</a>
</g>
<!-- \\Altamira\\JsWriter\\JqPlot&#45;&gt;\\Altamira\\JsWriter\\Ability\\Lineable -->
<g id="edge61" class="edge"><title>\\Altamira\\JsWriter\\JqPlot&#45;&gt;\\Altamira\\JsWriter\\Ability\\Lineable</title>
<path fill="none" stroke="black" stroke-dasharray="1,5" d="M535.936,-1268.18C506.752,-1296.65 446.379,-1351.92 386,-1385 375.253,-1390.89 362.995,-1395.81 351.358,-1399.77"/>
<polygon fill="none" stroke="black" points="350.214,-1396.46 341.776,-1402.87 352.368,-1403.12 350.214,-1396.46"/>
</g>
<!-- \\Altamira\\JsWriter\\JqPlot&#45;&gt;\\Altamira\\JsWriter\\Ability\\Legendable -->
<g id="edge55" class="edge"><title>\\Altamira\\JsWriter\\JqPlot&#45;&gt;\\Altamira\\JsWriter\\Ability\\Legendable</title>
<path fill="none" stroke="black" stroke-dasharray="1,5" d="M525.357,-1265.16C492.305,-1282.33 436.067,-1310.57 386,-1331 377.035,-1334.66 367.37,-1338.23 357.963,-1341.51"/>
<polygon fill="none" stroke="black" points="356.624,-1338.27 348.294,-1344.81 358.889,-1344.89 356.624,-1338.27"/>
</g>
<!-- \\Altamira\\JsWriter\\JqPlot&#45;&gt;\\Altamira\\JsWriter\\Ability\\Cursorable -->
<g id="edge45" class="edge"><title>\\Altamira\\JsWriter\\JqPlot&#45;&gt;\\Altamira\\JsWriter\\Ability\\Cursorable</title>
<path fill="none" stroke="black" stroke-dasharray="1,5" d="M525.066,-1256.3C484.219,-1265.19 408.975,-1281.58 358.213,-1292.63"/>
<polygon fill="none" stroke="black" points="357.431,-1289.22 348.405,-1294.77 358.921,-1296.06 357.431,-1289.22"/>
</g>
<!-- \\Altamira\\JsWriter\\JqPlot&#45;&gt;\\Altamira\\JsWriter\\Ability\\Shadowable -->
<g id="edge57" class="edge"><title>\\Altamira\\JsWriter\\JqPlot&#45;&gt;\\Altamira\\JsWriter\\Ability\\Shadowable</title>
<path fill="none" stroke="black" stroke-dasharray="1,5" d="M525.066,-1250C484.304,-1250 409.288,-1250 358.531,-1250"/>
<polygon fill="none" stroke="black" points="358.405,-1246.5 348.405,-1250 358.405,-1253.5 358.405,-1246.5"/>
</g>
<!-- \\Altamira\\JsWriter\\JqPlot&#45;&gt;\\Altamira\\JsWriter\\Ability\\Labelable -->
<g id="edge59" class="edge"><title>\\Altamira\\JsWriter\\JqPlot&#45;&gt;\\Altamira\\JsWriter\\Ability\\Labelable</title>
<path fill="none" stroke="black" stroke-dasharray="1,5" d="M525.066,-1243.7C483.347,-1234.62 405.75,-1217.72 354.999,-1206.67"/>
<polygon fill="none" stroke="black" points="355.429,-1203.18 344.913,-1204.47 353.939,-1210.02 355.429,-1203.18"/>
</g>
<!-- \\Altamira\\JsWriter\\JqPlot&#45;&gt;\\Altamira\\JsWriter\\Ability\\Fillable -->
<g id="edge49" class="edge"><title>\\Altamira\\JsWriter\\JqPlot&#45;&gt;\\Altamira\\JsWriter\\Ability\\Fillable</title>
<path fill="none" stroke="black" stroke-dasharray="1,5" d="M525.267,-1244.82C505.644,-1240.6 479.421,-1233.58 458,-1223 422.137,-1205.28 421.396,-1187.63 386,-1169 375.157,-1163.29 362.865,-1158.43 351.226,-1154.48"/>
<polygon fill="none" stroke="black" points="352.242,-1151.13 341.65,-1151.37 350.08,-1157.79 352.242,-1151.13"/>
</g>
<!-- \\Altamira\\JsWriter\\JqPlot&#45;&gt;\\Altamira\\JsWriter\\Ability\\Griddable -->
<g id="edge51" class="edge"><title>\\Altamira\\JsWriter\\JqPlot&#45;&gt;\\Altamira\\JsWriter\\Ability\\Griddable</title>
<path fill="none" stroke="black" stroke-dasharray="1,5" d="M525.242,-1247.24C504.864,-1244.09 477.747,-1237.35 458,-1223 411.334,-1189.08 431.78,-1150.1 386,-1115 376.733,-1107.89 365.487,-1102.6 354.39,-1098.67"/>
<polygon fill="none" stroke="black" points="355.322,-1095.29 344.731,-1095.56 353.177,-1101.96 355.322,-1095.29"/>
</g>
<!-- \\Altamira\\JsWriter\\JqPlot&#45;&gt;\\Altamira\\JsWriter\\Ability\\Highlightable -->
<g id="edge53" class="edge"><title>\\Altamira\\JsWriter\\JqPlot&#45;&gt;\\Altamira\\JsWriter\\Ability\\Highlightable</title>
<path fill="none" stroke="black" stroke-dasharray="1,5" d="M525.342,-1248.33C504.482,-1245.73 476.721,-1239.2 458,-1223 398.421,-1171.44 444.236,-1114.07 386,-1061 380.562,-1056.04 374.182,-1051.99 367.438,-1048.69"/>
<polygon fill="none" stroke="black" points="368.636,-1045.39 358.07,-1044.62 365.848,-1051.81 368.636,-1045.39"/>
</g>
<!-- \\Altamira\\JsWriter\\JqPlot&#45;&gt;\\Altamira\\JsWriter\\Ability\\Datable -->
<g id="edge47" class="edge"><title>\\Altamira\\JsWriter\\JqPlot&#45;&gt;\\Altamira\\JsWriter\\Ability\\Datable</title>
<path fill="none" stroke="black" stroke-dasharray="1,5" d="M525.314,-1248.9C504.163,-1246.6 476.043,-1240.2 458,-1223 384.764,-1153.17 457.42,-1078.69 386,-1007 375.76,-996.722 361.48,-990.355 347.814,-986.412"/>
<polygon fill="none" stroke="black" points="348.591,-982.998 338.038,-983.948 346.88,-989.786 348.591,-982.998"/>
</g>
<!-- \\Altamira\\JsWriter\\JqPlot&#45;&gt;\\Altamira\\JsWriter\\JsWriterAbstract -->
<g id="edge13" class="edge"><title>\\Altamira\\JsWriter\\JqPlot&#45;&gt;\\Altamira\\JsWriter\\JsWriterAbstract</title>
<path fill="none" stroke="black" d="M545.016,-1268.11C523.537,-1309.49 465.058,-1411.43 386,-1464 383.582,-1465.61 381.049,-1467.1 378.434,-1468.48"/>
<polygon fill="none" stroke="black" points="376.843,-1465.36 369.275,-1472.78 379.815,-1471.7 376.843,-1465.36"/>
</g>
<!-- \\Altamira\\JsWriter\\Flot -->
<g id="node26" class="node"><title>\\Altamira\\JsWriter\\Flot</title>
<a xlink:href="JsWriter.Flot.html" xlink:title="Flot" target="_parent">
<polygon fill="none" stroke="black" points="581,-1214 527,-1214 527,-1178 581,-1178 581,-1214"/>
<text text-anchor="middle" x="554" y="-1193.1" font-family="Courier,monospace" font-size="11.00">Flot</text>
</a>
</g>
<!-- \\Altamira\\JsWriter\\Flot&#45;&gt;\\Altamira\\JsWriter\\Ability\\Lineable -->
<g id="edge81" class="edge"><title>\\Altamira\\JsWriter\\Flot&#45;&gt;\\Altamira\\JsWriter\\Ability\\Lineable</title>
<path fill="none" stroke="black" stroke-dasharray="1,5" d="M526.645,-1197.51C505.651,-1200 477.114,-1206.46 458,-1223 398.421,-1274.56 444.236,-1331.93 386,-1385 376.34,-1393.8 363.704,-1399.75 351.337,-1403.76"/>
<polygon fill="none" stroke="black" points="350.181,-1400.45 341.539,-1406.58 352.117,-1407.18 350.181,-1400.45"/>
</g>
<!-- \\Altamira\\JsWriter\\Flot&#45;&gt;\\Altamira\\JsWriter\\Ability\\Legendable -->
<g id="edge73" class="edge"><title>\\Altamira\\JsWriter\\Flot&#45;&gt;\\Altamira\\JsWriter\\Ability\\Legendable</title>
<path fill="none" stroke="black" stroke-dasharray="1,5" d="M526.96,-1198.5C506.409,-1201.54 478.307,-1208.24 458,-1223 411.334,-1256.92 431.78,-1295.9 386,-1331 377.625,-1337.42 367.634,-1342.37 357.598,-1346.16"/>
<polygon fill="none" stroke="black" points="356.334,-1342.89 348.013,-1349.45 358.608,-1349.51 356.334,-1342.89"/>
</g>
<!-- \\Altamira\\JsWriter\\Flot&#45;&gt;\\Altamira\\JsWriter\\Ability\\Cursorable -->
<g id="edge63" class="edge"><title>\\Altamira\\JsWriter\\Flot&#45;&gt;\\Altamira\\JsWriter\\Ability\\Cursorable</title>
<path fill="none" stroke="black" stroke-dasharray="1,5" d="M526.957,-1200.82C507.168,-1204.99 480.042,-1212.11 458,-1223 422.137,-1240.72 421.396,-1258.37 386,-1277 377.147,-1281.66 367.328,-1285.75 357.688,-1289.25"/>
<polygon fill="none" stroke="black" points="356.456,-1285.98 348.15,-1292.55 358.744,-1292.59 356.456,-1285.98"/>
</g>
<!-- \\Altamira\\JsWriter\\Flot&#45;&gt;\\Altamira\\JsWriter\\Ability\\Shadowable -->
<g id="edge75" class="edge"><title>\\Altamira\\JsWriter\\Flot&#45;&gt;\\Altamira\\JsWriter\\Ability\\Shadowable</title>
<path fill="none" stroke="black" stroke-dasharray="1,5" d="M526.988,-1201.88C486.619,-1210.67 409.789,-1227.4 358.221,-1238.63"/>
<polygon fill="none" stroke="black" points="357.288,-1235.25 348.262,-1240.8 358.778,-1242.09 357.288,-1235.25"/>
</g>
<!-- \\Altamira\\JsWriter\\Flot&#45;&gt;\\Altamira\\JsWriter\\Ability\\Zoomable -->
<g id="edge77" class="edge"><title>\\Altamira\\JsWriter\\Flot&#45;&gt;\\Altamira\\JsWriter\\Ability\\Zoomable</title>
<path fill="none" stroke="black" stroke-dasharray="1,5" d="M546.365,-1177.79C526.63,-1132.88 469.564,-1015.96 386,-953 375.939,-945.42 363.617,-939.886 351.687,-935.879"/>
<polygon fill="none" stroke="black" points="352.402,-932.438 341.816,-932.861 350.355,-939.132 352.402,-932.438"/>
</g>
<!-- \\Altamira\\JsWriter\\Flot&#45;&gt;\\Altamira\\JsWriter\\Ability\\Labelable -->
<g id="edge79" class="edge"><title>\\Altamira\\JsWriter\\Flot&#45;&gt;\\Altamira\\JsWriter\\Ability\\Labelable</title>
<path fill="none" stroke="black" stroke-dasharray="1,5" d="M526.988,-1196C485.763,-1196 406.516,-1196 354.977,-1196"/>
<polygon fill="none" stroke="black" points="354.74,-1192.5 344.74,-1196 354.74,-1199.5 354.74,-1192.5"/>
</g>
<!-- \\Altamira\\JsWriter\\Flot&#45;&gt;\\Altamira\\JsWriter\\Ability\\Fillable -->
<g id="edge67" class="edge"><title>\\Altamira\\JsWriter\\Flot&#45;&gt;\\Altamira\\JsWriter\\Ability\\Fillable</title>
<path fill="none" stroke="black" stroke-dasharray="1,5" d="M526.988,-1190.12C484.853,-1180.94 403,-1163.12 351.605,-1151.93"/>
<polygon fill="none" stroke="black" points="352.269,-1148.49 341.753,-1149.78 350.779,-1155.33 352.269,-1148.49"/>
</g>
<!-- \\Altamira\\JsWriter\\Flot&#45;&gt;\\Altamira\\JsWriter\\Ability\\Griddable -->
<g id="edge69" class="edge"><title>\\Altamira\\JsWriter\\Flot&#45;&gt;\\Altamira\\JsWriter\\Ability\\Griddable</title>
<path fill="none" stroke="black" stroke-dasharray="1,5" d="M526.825,-1181.61C493.99,-1164.52 436.817,-1135.73 386,-1115 375.816,-1110.85 364.73,-1106.81 354.145,-1103.17"/>
<polygon fill="none" stroke="black" points="355.199,-1099.83 344.605,-1099.96 352.964,-1106.47 355.199,-1099.83"/>
</g>
<!-- \\Altamira\\JsWriter\\Flot&#45;&gt;\\Altamira\\JsWriter\\Ability\\Highlightable -->
<g id="edge71" class="edge"><title>\\Altamira\\JsWriter\\Flot&#45;&gt;\\Altamira\\JsWriter\\Ability\\Highlightable</title>
<path fill="none" stroke="black" stroke-dasharray="1,5" d="M535.936,-1177.82C506.752,-1149.35 446.379,-1094.08 386,-1061 380.348,-1057.9 374.277,-1055.07 368.098,-1052.51"/>
<polygon fill="none" stroke="black" points="368.933,-1049.08 358.345,-1048.7 366.387,-1055.6 368.933,-1049.08"/>
</g>
<!-- \\Altamira\\JsWriter\\Flot&#45;&gt;\\Altamira\\JsWriter\\Ability\\Datable -->
<g id="edge65" class="edge"><title>\\Altamira\\JsWriter\\Flot&#45;&gt;\\Altamira\\JsWriter\\Ability\\Datable</title>
<path fill="none" stroke="black" stroke-dasharray="1,5" d="M542.65,-1177.83C518.418,-1140.49 457.93,-1054.62 386,-1007 374.507,-999.391 360.664,-993.729 347.747,-989.61"/>
<polygon fill="none" stroke="black" points="348.687,-986.238 338.105,-986.754 346.699,-992.95 348.687,-986.238"/>
</g>
<!-- \\Altamira\\JsWriter\\Flot&#45;&gt;\\Altamira\\JsWriter\\JsWriterAbstract -->
<g id="edge15" class="edge"><title>\\Altamira\\JsWriter\\Flot&#45;&gt;\\Altamira\\JsWriter\\JsWriterAbstract</title>
<path fill="none" stroke="black" d="M526.91,-1196.77C505.497,-1198.81 476.264,-1205.03 458,-1223 378.318,-1301.41 465.909,-1385.83 386,-1464 383.58,-1466.37 380.931,-1468.49 378.114,-1470.38"/>
<polygon fill="none" stroke="black" points="376.197,-1467.44 369.224,-1475.42 379.649,-1473.53 376.197,-1467.44"/>
</g>
<!-- \\Altamira\\Type\\Flot\\Donut -->
<g id="node30" class="node"><title>\\Altamira\\Type\\Flot\\Donut</title>
<a xlink:href="Type.Flot.Donut.html" xlink:title="Donut" target="_parent">
<polygon fill="none" stroke="black" points="581,-770 527,-770 527,-734 581,-734 581,-770"/>
<text text-anchor="middle" x="554" y="-749.1" font-family="Courier,monospace" font-size="11.00">Donut</text>
</a>
</g>
<!-- \\Altamira\\Type\\Flot\\Pie -->
<g id="node32" class="node"><title>\\Altamira\\Type\\Flot\\Pie</title>
<a xlink:href="Type.Flot.Pie.html" xlink:title="Pie" target="_parent">
<polygon fill="none" stroke="black" points="333,-735 279,-735 279,-699 333,-699 333,-735"/>
<text text-anchor="middle" x="306" y="-714.1" font-family="Courier,monospace" font-size="11.00">Pie</text>
</a>
</g>
<!-- \\Altamira\\Type\\Flot\\Donut&#45;&gt;\\Altamira\\Type\\Flot\\Pie -->
<g id="edge19" class="edge"><title>\\Altamira\\Type\\Flot\\Donut&#45;&gt;\\Altamira\\Type\\Flot\\Pie</title>
<path fill="none" stroke="black" d="M526.988,-748.188C482.568,-741.919 394.002,-729.42 343.521,-722.295"/>
<polygon fill="none" stroke="black" points="343.748,-718.793 333.357,-720.861 342.769,-725.724 343.748,-718.793"/>
</g>
<!-- \\Altamira\\Type\\Flot\\Bubble -->
<g id="node31" class="node"><title>\\Altamira\\Type\\Flot\\Bubble</title>
<a xlink:href="Type.Flot.Bubble.html" xlink:title="Bubble" target="_parent">
<polygon fill="none" stroke="black" points="582,-824 526,-824 526,-788 582,-788 582,-824"/>
<text text-anchor="middle" x="554" y="-803.1" font-family="Courier,monospace" font-size="11.00">Bubble</text>
</a>
</g>
<!-- \\Altamira\\Type\\TypeAbstract -->
<g id="node40" class="node"><title>\\Altamira\\Type\\TypeAbstract</title>
<a xlink:href="Type.TypeAbstract.html" xlink:title="«abstract»&lt;br/&gt;TypeAbstract" target="_parent">
<polygon fill="none" stroke="black" points="126,-681 28,-681 28,-645 126,-645 126,-681"/>
<text text-anchor="start" x="43" y="-668.433" font-family="Courier,monospace" font-size="11.00">«abstract»</text>
<text text-anchor="start" x="36" y="-655.233" font-family="Courier,monospace" font-size="11.00">TypeAbstract</text>
</a>
</g>
<!-- \\Altamira\\Type\\Flot\\Bubble&#45;&gt;\\Altamira\\Type\\TypeAbstract -->
<g id="edge21" class="edge"><title>\\Altamira\\Type\\Flot\\Bubble&#45;&gt;\\Altamira\\Type\\TypeAbstract</title>
<path fill="none" stroke="black" d="M525.137,-803.579C467.04,-798.054 332.449,-781.94 226,-744 185.157,-729.443 141.997,-704.829 112.702,-686.547"/>
<polygon fill="none" stroke="black" points="114.397,-683.477 104.073,-681.094 110.657,-689.395 114.397,-683.477"/>
</g>
<!-- \\Altamira\\Type\\Flot\\Pie&#45;&gt;\\Altamira\\Type\\TypeAbstract -->
<g id="edge23" class="edge"><title>\\Altamira\\Type\\Flot\\Pie&#45;&gt;\\Altamira\\Type\\TypeAbstract</title>
<path fill="none" stroke="black" d="M278.831,-710.593C243.952,-702.369 182.454,-687.867 136.48,-677.026"/>
<polygon fill="none" stroke="black" points="137.164,-673.591 126.628,-674.703 135.558,-680.404 137.164,-673.591"/>
</g>
<!-- \\Altamira\\Type\\Flot\\Bar -->
<g id="node33" class="node"><title>\\Altamira\\Type\\Flot\\Bar</title>
<a xlink:href="Type.Flot.Bar.html" xlink:title="Bar" target="_parent">
<polygon fill="none" stroke="black" points="581,-716 527,-716 527,-680 581,-680 581,-716"/>
<text text-anchor="middle" x="554" y="-695.1" font-family="Courier,monospace" font-size="11.00">Bar</text>
</a>
</g>
<!-- \\Altamira\\Type\\Flot\\Bar&#45;&gt;\\Altamira\\Type\\TypeAbstract -->
<g id="edge25" class="edge"><title>\\Altamira\\Type\\Flot\\Bar&#45;&gt;\\Altamira\\Type\\TypeAbstract</title>
<path fill="none" stroke="black" d="M526.653,-691.361C481.144,-680.941 386.871,-662.022 306,-663"/>
</g>
<!-- \\Altamira\\Type\\JqPlot\\Donut -->
<g id="node35" class="node"><title>\\Altamira\\Type\\JqPlot\\Donut</title>
<a xlink:href="Type.JqPlot.Donut.html" xlink:title="Donut" target="_parent">
<polygon fill="none" stroke="black" points="581,-580 527,-580 527,-544 581,-544 581,-580"/>
<text text-anchor="middle" x="554" y="-559.1" font-family="Courier,monospace" font-size="11.00">Donut</text>
</a>
</g>
<!-- \\Altamira\\Type\\JqPlot\\Pie -->
<g id="node38" class="node"><title>\\Altamira\\Type\\JqPlot\\Pie</title>
<a xlink:href="Type.JqPlot.Pie.html" xlink:title="Pie" target="_parent">
<polygon fill="none" stroke="black" points="333,-607 279,-607 279,-571 333,-571 333,-607"/>
<text text-anchor="middle" x="306" y="-586.1" font-family="Courier,monospace" font-size="11.00">Pie</text>
</a>
</g>
<!-- \\Altamira\\Type\\JqPlot\\Donut&#45;&gt;\\Altamira\\Type\\JqPlot\\Pie -->
<g id="edge27" class="edge"><title>\\Altamira\\Type\\JqPlot\\Donut&#45;&gt;\\Altamira\\Type\\JqPlot\\Pie</title>
<path fill="none" stroke="black" d="M526.988,-564.941C482.568,-569.777 394.002,-579.419 343.521,-584.915"/>
<polygon fill="none" stroke="black" points="342.919,-581.46 333.357,-586.022 343.677,-588.419 342.919,-581.46"/>
</g>
<!-- \\Altamira\\Type\\JqPlot\\Bubble -->
<g id="node36" class="node"><title>\\Altamira\\Type\\JqPlot\\Bubble</title>
<a xlink:href="Type.JqPlot.Bubble.html" xlink:title="Bubble" target="_parent">
<polygon fill="none" stroke="black" points="582,-634 526,-634 526,-598 582,-598 582,-634"/>
<text text-anchor="middle" x="554" y="-613.1" font-family="Courier,monospace" font-size="11.00">Bubble</text>
</a>
</g>
<!-- \\Altamira\\Type\\JqPlot\\Bubble&#45;&gt;\\Altamira\\Type\\TypeAbstract -->
<g id="edge29" class="edge"><title>\\Altamira\\Type\\JqPlot\\Bubble&#45;&gt;\\Altamira\\Type\\TypeAbstract</title>
<path fill="none" stroke="black" d="M525.316,-624.831C479.47,-638.171 386.626,-662.025 306,-663"/>
<path fill="none" stroke="black" d="M306,-663C248.529,-663.695 182.939,-663.605 136.727,-663.395"/>
<polygon fill="none" stroke="black" points="136.604,-659.895 126.587,-663.346 136.57,-666.894 136.604,-659.895"/>
</g>
<!-- \\Altamira\\Type\\JqPlot\\Stacked -->
<g id="node37" class="node"><title>\\Altamira\\Type\\JqPlot\\Stacked</title>
<a xlink:href="Type.JqPlot.Stacked.html" xlink:title="Stacked" target="_parent">
<polygon fill="none" stroke="black" points="586,-472 522,-472 522,-436 586,-436 586,-472"/>
<text text-anchor="middle" x="554" y="-451.1" font-family="Courier,monospace" font-size="11.00">Stacked</text>
</a>
</g>
<!-- \\Altamira\\Type\\JqPlot\\Stacked&#45;&gt;\\Altamira\\Type\\TypeAbstract -->
<g id="edge31" class="edge"><title>\\Altamira\\Type\\JqPlot\\Stacked&#45;&gt;\\Altamira\\Type\\TypeAbstract</title>
<path fill="none" stroke="black" d="M521.949,-462.821C503.265,-468.012 479.265,-474.762 458,-481 425.893,-490.419 418.923,-497.027 386,-503 368.474,-506.18 322.722,-501.863 306,-508"/>
<path fill="none" stroke="black" d="M306,-508C265.729,-522.779 258.455,-533.949 226,-562 190.058,-593.064 194.375,-615.967 154,-641 148.572,-644.365 142.613,-647.232 136.487,-649.669"/>
<polygon fill="none" stroke="black" points="135.006,-646.482 126.778,-653.157 137.372,-653.07 135.006,-646.482"/>
</g>
<!-- \\Altamira\\Type\\JqPlot\\Pie&#45;&gt;\\Altamira\\Type\\TypeAbstract -->
<g id="edge33" class="edge"><title>\\Altamira\\Type\\JqPlot\\Pie&#45;&gt;\\Altamira\\Type\\TypeAbstract</title>
<path fill="none" stroke="black" d="M278.708,-595.592C263.121,-599.584 243.297,-605.045 226,-611 193.222,-622.285 186.722,-629.552 154,-641 148.367,-642.971 142.459,-644.899 136.526,-646.744"/>
<polygon fill="none" stroke="black" points="135.117,-643.513 126.561,-649.762 137.146,-650.213 135.117,-643.513"/>
</g>
<!-- \\Altamira\\Type\\JqPlot\\Bar -->
<g id="node39" class="node"><title>\\Altamira\\Type\\JqPlot\\Bar</title>
<a xlink:href="Type.JqPlot.Bar.html" xlink:title="Bar" target="_parent">
<polygon fill="none" stroke="black" points="581,-526 527,-526 527,-490 581,-490 581,-526"/>
<text text-anchor="middle" x="554" y="-505.1" font-family="Courier,monospace" font-size="11.00">Bar</text>
</a>
</g>
<!-- \\Altamira\\Type\\JqPlot\\Bar&#45;&gt;\\Altamira\\Type\\TypeAbstract -->
<g id="edge35" class="edge"><title>\\Altamira\\Type\\JqPlot\\Bar&#45;&gt;\\Altamira\\Type\\TypeAbstract</title>
<path fill="none" stroke="black" d="M526.942,-506.952C466.91,-504.776 326.26,-500.565 306,-508"/>
</g>
<!-- \\Altamira\\Config -->
<g id="node43" class="node"><title>\\Altamira\\Config</title>
<a xlink:href="Config.html" xlink:title="Config" target="_parent">
<polygon fill="none" stroke="black" points="582,-412 526,-412 526,-376 582,-376 582,-412"/>
<text text-anchor="middle" x="554" y="-391.1" font-family="Courier,monospace" font-size="11.00">Config</text>
</a>
</g>
<!-- \\Altamira\\Config&#45;&gt;\\ArrayAccess -->
<g id="edge83" class="edge"><title>\\Altamira\\Config&#45;&gt;\\ArrayAccess</title>
<path fill="none" stroke="black" stroke-dasharray="1,5" d="M525.349,-389.57C505.523,-385.658 479.028,-378.704 458,-367 297.85,-277.864 150.634,-108.688 97.728,-44.0231"/>
<polygon fill="none" stroke="black" points="100.201,-41.5168 91.1795,-35.9618 94.7681,-45.9304 100.201,-41.5168"/>
</g>
<!-- \\Altamira\\FilesRenderer -->
<g id="node44" class="node"><title>\\Altamira\\FilesRenderer</title>
<a xlink:href="FilesRenderer.html" xlink:title="FilesRenderer" target="_parent">
<polygon fill="none" stroke="black" points="606,-304 502,-304 502,-268 606,-268 606,-304"/>
<text text-anchor="middle" x="554" y="-283.1" font-family="Courier,monospace" font-size="11.00">FilesRenderer</text>
</a>
</g>
<!-- \\ArrayIterator -->
<g id="node53" class="node"><title>\\ArrayIterator</title>
<ellipse fill="none" stroke="black" cx="306" cy="-18" rx="79.9031" ry="18.3848"/>
<text text-anchor="middle" x="306" y="-14.4" font-family="Times Roman,serif" font-size="14.00" fill="gray">\ArrayIterator</text>
</g>
<!-- \\Altamira\\FilesRenderer&#45;&gt;\\ArrayIterator -->
<g id="edge17" class="edge"><title>\\Altamira\\FilesRenderer&#45;&gt;\\ArrayIterator</title>
<path fill="none" stroke="black" d="M501.945,-280.892C486.163,-277.025 469.88,-270.375 458,-259 383.993,-188.142 460.212,-110.643 386,-40 383.726,-37.8352 381.259,-35.8796 378.649,-34.1132"/>
<polygon fill="none" stroke="black" points="380.301,-31.0264 369.885,-29.0914 376.821,-37.1 380.301,-31.0264"/>
</g>
<!-- \\Altamira\\ScriptsRenderer -->
<g id="node45" class="node"><title>\\Altamira\\ScriptsRenderer</title>
<a xlink:href="ScriptsRenderer.html" xlink:title="ScriptsRenderer" target="_parent">
<polygon fill="none" stroke="black" points="613,-142 495,-142 495,-106 613,-106 613,-142"/>
<text text-anchor="middle" x="554" y="-121.1" font-family="Courier,monospace" font-size="11.00">ScriptsRenderer</text>
</a>
</g>
<!-- \\Altamira\\ScriptsRenderer&#45;&gt;\\ArrayIterator -->
<g id="edge37" class="edge"><title>\\Altamira\\ScriptsRenderer&#45;&gt;\\ArrayIterator</title>
<path fill="none" stroke="black" d="M494.983,-111.371C482.421,-107.601 469.489,-102.863 458,-97 421.647,-78.4467 422.407,-58.4478 386,-40 381.804,-37.8738 377.377,-35.9321 372.845,-34.1624"/>
<polygon fill="none" stroke="black" points="374.033,-30.8702 363.439,-30.7673 371.657,-37.4545 374.033,-30.8702"/>
</g>
<!-- \\Altamira\\ChartRenderer -->
<g id="node46" class="node"><title>\\Altamira\\ChartRenderer</title>
<a xlink:href="ChartRenderer.html" xlink:title="ChartRenderer" target="_parent">
<polygon fill="none" stroke="black" points="606,-250 502,-250 502,-214 606,-214 606,-250"/>
<text text-anchor="middle" x="554" y="-229.1" font-family="Courier,monospace" font-size="11.00">ChartRenderer</text>
</a>
</g>
<!-- \\Altamira\\Chart -->
<g id="node47" class="node"><title>\\Altamira\\Chart</title>
<a xlink:href="Chart.html" xlink:title="Chart" target="_parent">
<polygon fill="none" stroke="black" points="581,-196 527,-196 527,-160 581,-160 581,-196"/>
<text text-anchor="middle" x="554" y="-175.1" font-family="Courier,monospace" font-size="11.00">Chart</text>
</a>
</g>
<!-- \\Altamira\\ChartIterator -->
<g id="node48" class="node"><title>\\Altamira\\ChartIterator</title>
<a xlink:href="ChartIterator.html" xlink:title="ChartIterator" target="_parent">
<polygon fill="none" stroke="black" points="606,-358 502,-358 502,-322 606,-322 606,-358"/>
<text text-anchor="middle" x="554" y="-337.1" font-family="Courier,monospace" font-size="11.00">ChartIterator</text>
</a>
</g>
<!-- \\Altamira\\ChartIterator&#45;&gt;\\ArrayIterator -->
<g id="edge43" class="edge"><title>\\Altamira\\ChartIterator&#45;&gt;\\ArrayIterator</title>
<path fill="none" stroke="black" d="M501.536,-335.307C485.729,-331.466 469.535,-324.725 458,-313 369.997,-223.55 474.262,-129.194 386,-40 383.863,-37.8402 381.535,-35.887 379.062,-34.121"/>
<polygon fill="none" stroke="black" points="380.542,-30.9287 370.161,-28.8095 376.955,-36.9397 380.542,-30.9287"/>
</g>
<!-- \\Altamira\\Series -->
<g id="node49" class="node"><title>\\Altamira\\Series</title>
<a xlink:href="Series.html" xlink:title="Series" target="_parent">
<polygon fill="none" stroke="black" points="582,-88 526,-88 526,-52 582,-52 582,-88"/>
<text text-anchor="middle" x="554" y="-67.1" font-family="Courier,monospace" font-size="11.00">Series</text>
</a>
</g>
</g>
</svg>
