<?xml version="1.0" encoding="UTF-8" standalone="no"?>
<!DOCTYPE svg PUBLIC "-//W3C//DTD SVG 1.1//EN"
 "http://www.w3.org/Graphics/SVG/1.1/DTD/svg11.dtd">
<!-- Generated by graphviz version 2.28.0 (20130110.0047)
 -->
<!-- Title: G Pages: 1 -->
<svg width="639pt" height="1985pt"
 viewBox="0.00 0.00 639.00 1985.34" xmlns="http://www.w3.org/2000/svg" xmlns:xlink="http://www.w3.org/1999/xlink">
<g id="graph1" class="graph" transform="scale(1 1) rotate(0) translate(4 1981.34)">
<title>G</title>
<polygon fill="white" stroke="white" points="-4,5 -4,-1981.34 636,-1981.34 636,5 -4,5"/>
<g id="graph2" class="cluster"><title>cluster_Altamira</title>
<polyline fill="none" stroke="gray" points="20,-77.3405 611,-77.3405 "/>
<path fill="none" stroke="gray" d="M611,-77.3405C617,-77.3405 623,-83.3405 623,-89.3405"/>
<polyline fill="none" stroke="gray" points="623,-89.3405 623,-1957.34 "/>
<path fill="none" stroke="gray" d="M623,-1957.34C623,-1963.34 617,-1969.34 611,-1969.34"/>
<polyline fill="none" stroke="gray" points="611,-1969.34 20,-1969.34 "/>
<path fill="none" stroke="gray" d="M20,-1969.34C14,-1969.34 8,-1963.34 8,-1957.34"/>
<polyline fill="none" stroke="gray" points="8,-1957.34 8,-89.3405 "/>
<path fill="none" stroke="gray" d="M8,-89.3405C8,-83.3405 14,-77.3405 20,-77.3405"/>
<text text-anchor="middle" x="315.5" y="-1954.34" font-family="Times,serif" font-size="11.00" fill="gray">Altamira</text>
</g>
<g id="graph3" class="cluster"><title>cluster_Altamira\ChartDatum</title>
<polyline fill="none" stroke="gray" points="215,-1705.34 603,-1705.34 "/>
<path fill="none" stroke="gray" d="M603,-1705.34C609,-1705.34 615,-1711.34 615,-1717.34"/>
<polyline fill="none" stroke="gray" points="615,-1717.34 615,-1928.34 "/>
<path fill="none" stroke="gray" d="M615,-1928.34C615,-1934.34 609,-1940.34 603,-1940.34"/>
<polyline fill="none" stroke="gray" points="603,-1940.34 215,-1940.34 "/>
<path fill="none" stroke="gray" d="M215,-1940.34C209,-1940.34 203,-1934.34 203,-1928.34"/>
<polyline fill="none" stroke="gray" points="203,-1928.34 203,-1717.34 "/>
<path fill="none" stroke="gray" d="M203,-1717.34C203,-1711.34 209,-1705.34 215,-1705.34"/>
<text text-anchor="middle" x="409" y="-1925.34" font-family="Times,serif" font-size="11.00" fill="gray">ChartDatum</text>
</g>
<g id="graph4" class="cluster"><title>cluster_Altamira\ChartRenderer</title>
<polyline fill="none" stroke="gray" points="219,-1570.34 567,-1570.34 "/>
<path fill="none" stroke="gray" d="M567,-1570.34C573,-1570.34 579,-1576.34 579,-1582.34"/>
<polyline fill="none" stroke="gray" points="579,-1582.34 579,-1685.34 "/>
<path fill="none" stroke="gray" d="M579,-1685.34C579,-1691.34 573,-1697.34 567,-1697.34"/>
<polyline fill="none" stroke="gray" points="567,-1697.34 219,-1697.34 "/>
<path fill="none" stroke="gray" d="M219,-1697.34C213,-1697.34 207,-1691.34 207,-1685.34"/>
<polyline fill="none" stroke="gray" points="207,-1685.34 207,-1582.34 "/>
<path fill="none" stroke="gray" d="M207,-1582.34C207,-1576.34 213,-1570.34 219,-1570.34"/>
<text text-anchor="middle" x="393" y="-1682.34" font-family="Times,serif" font-size="11.00" fill="gray">ChartRenderer</text>
</g>
<g id="graph5" class="cluster"><title>cluster_Altamira\JsWriter</title>
<polyline fill="none" stroke="gray" points="222,-922.341 537,-922.341 "/>
<path fill="none" stroke="gray" d="M537,-922.341C543,-922.341 549,-928.341 549,-934.341"/>
<polyline fill="none" stroke="gray" points="549,-934.341 549,-1550.34 "/>
<path fill="none" stroke="gray" d="M549,-1550.34C549,-1556.34 543,-1562.34 537,-1562.34"/>
<polyline fill="none" stroke="gray" points="537,-1562.34 222,-1562.34 "/>
<path fill="none" stroke="gray" d="M222,-1562.34C216,-1562.34 210,-1556.34 210,-1550.34"/>
<polyline fill="none" stroke="gray" points="210,-1550.34 210,-934.341 "/>
<path fill="none" stroke="gray" d="M210,-934.341C210,-928.341 216,-922.341 222,-922.341"/>
<text text-anchor="middle" x="379.5" y="-1547.34" font-family="Times,serif" font-size="11.00" fill="gray">JsWriter</text>
</g>
<g id="graph6" class="cluster"><title>cluster_Altamira\JsWriter\Ability</title>
<polyline fill="none" stroke="gray" points="232,-930.341 326,-930.341 "/>
<path fill="none" stroke="gray" d="M326,-930.341C332,-930.341 338,-936.341 338,-942.341"/>
<polyline fill="none" stroke="gray" points="338,-942.341 338,-1477.34 "/>
<path fill="none" stroke="gray" d="M338,-1477.34C338,-1483.34 332,-1489.34 326,-1489.34"/>
<polyline fill="none" stroke="gray" points="326,-1489.34 232,-1489.34 "/>
<path fill="none" stroke="gray" d="M232,-1489.34C226,-1489.34 220,-1483.34 220,-1477.34"/>
<polyline fill="none" stroke="gray" points="220,-1477.34 220,-942.341 "/>
<path fill="none" stroke="gray" d="M220,-942.341C220,-936.341 226,-930.341 232,-930.341"/>
<text text-anchor="middle" x="279" y="-1474.34" font-family="Times,serif" font-size="11.00" fill="gray">Ability</text>
</g>
<g id="graph8" class="cluster"><title>cluster_Altamira\Type</title>
<polyline fill="none" stroke="gray" points="28,-453.341 548,-453.341 "/>
<path fill="none" stroke="gray" d="M548,-453.341C554,-453.341 560,-459.341 560,-465.341"/>
<polyline fill="none" stroke="gray" points="560,-465.341 560,-902.341 "/>
<path fill="none" stroke="gray" d="M560,-902.341C560,-908.341 554,-914.341 548,-914.341"/>
<polyline fill="none" stroke="gray" points="548,-914.341 28,-914.341 "/>
<path fill="none" stroke="gray" d="M28,-914.341C22,-914.341 16,-908.341 16,-902.341"/>
<polyline fill="none" stroke="gray" points="16,-902.341 16,-465.341 "/>
<path fill="none" stroke="gray" d="M16,-465.341C16,-459.341 22,-453.341 28,-453.341"/>
<text text-anchor="middle" x="288" y="-899.341" font-family="Times,serif" font-size="11.00" fill="gray">Type</text>
</g>
<g id="graph9" class="cluster"><title>cluster_Altamira\Type\Flot</title>
<polyline fill="none" stroke="gray" points="256,-704.341 537,-704.341 "/>
<path fill="none" stroke="gray" d="M537,-704.341C543,-704.341 549,-710.341 549,-716.341"/>
<polyline fill="none" stroke="gray" points="549,-716.341 549,-873.341 "/>
<path fill="none" stroke="gray" d="M549,-873.341C549,-879.341 543,-885.341 537,-885.341"/>
<polyline fill="none" stroke="gray" points="537,-885.341 256,-885.341 "/>
<path fill="none" stroke="gray" d="M256,-885.341C250,-885.341 244,-879.341 244,-873.341"/>
<polyline fill="none" stroke="gray" points="244,-873.341 244,-716.341 "/>
<path fill="none" stroke="gray" d="M244,-716.341C244,-710.341 250,-704.341 256,-704.341"/>
<text text-anchor="middle" x="396.5" y="-870.341" font-family="Times,serif" font-size="11.00" fill="gray">Flot</text>
</g>
<g id="graph10" class="cluster"><title>cluster_Altamira\Type\JqPlot</title>
<polyline fill="none" stroke="gray" points="256,-461.341 540,-461.341 "/>
<path fill="none" stroke="gray" d="M540,-461.341C546,-461.341 552,-467.341 552,-473.341"/>
<polyline fill="none" stroke="gray" points="552,-473.341 552,-684.341 "/>
<path fill="none" stroke="gray" d="M552,-684.341C552,-690.341 546,-696.341 540,-696.341"/>
<polyline fill="none" stroke="gray" points="540,-696.341 256,-696.341 "/>
<path fill="none" stroke="gray" d="M256,-696.341C250,-696.341 244,-690.341 244,-684.341"/>
<polyline fill="none" stroke="gray" points="244,-684.341 244,-473.341 "/>
<path fill="none" stroke="gray" d="M244,-473.341C244,-467.341 250,-461.341 256,-461.341"/>
<text text-anchor="middle" x="398" y="-681.341" font-family="Times,serif" font-size="11.00" fill="gray">JqPlot</text>
</g>
<!-- \\Altamira\\ChartDatum\\Bubble -->
<g id="node3" class="node"><title>\\Altamira\\ChartDatum\\Bubble</title>
<a xlink:href="ChartDatum.Bubble.html" xlink:title="Bubble" target="_parent">
<polygon fill="none" stroke="black" points="540.608,-1911.34 485.392,-1911.34 485.392,-1875.34 540.608,-1875.34 540.608,-1911.34"/>
<text text-anchor="middle" x="513" y="-1888.94" font-family="Courier,monospace" font-size="11.00">Bubble</text>
</a>
</g>
<!-- \\Altamira\\ChartDatum\\ChartDatumAbstract -->
<g id="node5" class="node"><title>\\Altamira\\ChartDatum\\ChartDatumAbstract</title>
<a xlink:href="ChartDatum.ChartDatumAbstract.html" xlink:title="«abstract»&lt;br/&gt;ChartDatumAbstract" target="_parent">
<polygon fill="none" stroke="black" points="346.5,-1803.34 211.5,-1803.34 211.5,-1767.34 346.5,-1767.34 346.5,-1803.34"/>
<text text-anchor="start" x="246" y="-1786.84" font-family="Courier,monospace" font-size="11.00">«abstract»</text>
<text text-anchor="start" x="220" y="-1775.84" font-family="Courier,monospace" font-size="11.00">ChartDatumAbstract</text>
</a>
</g>
<!-- \\Altamira\\ChartDatum\\Bubble&#45;&gt;\\Altamira\\ChartDatum\\ChartDatumAbstract -->
<g id="edge13" class="edge"><title>\\Altamira\\ChartDatum\\Bubble&#45;&gt;\\Altamira\\ChartDatum\\ChartDatumAbstract</title>
<path fill="none" stroke="black" d="M485.345,-1887.45C466.418,-1882.82 440.633,-1875.62 419,-1866.34 381.823,-1850.4 342.224,-1826.57 314.841,-1808.88"/>
<polygon fill="none" stroke="black" points="316.686,-1805.91 306.398,-1803.37 312.86,-1811.77 316.686,-1805.91"/>
</g>
<!-- \\Altamira\\ChartDatum\\BubbleFactory -->
<g id="node4" class="node"><title>\\Altamira\\ChartDatum\\BubbleFactory</title>
<a xlink:href="ChartDatum.BubbleFactory.html" xlink:title="BubbleFactory" target="_parent">
<polygon fill="none" stroke="black" points="563.814,-1857.34 462.186,-1857.34 462.186,-1821.34 563.814,-1821.34 563.814,-1857.34"/>
<text text-anchor="middle" x="513" y="-1834.94" font-family="Courier,monospace" font-size="11.00">BubbleFactory</text>
</a>
</g>
<!-- \\ArrayAccess -->
<g id="node68" class="node"><title>\\ArrayAccess</title>
<ellipse fill="none" stroke="black" cx="72" cy="-28.3405" rx="66.044" ry="18"/>
<text text-anchor="middle" x="72" y="-22.7405" font-family="Times,serif" font-size="14.00" fill="gray">\\ArrayAccess</text>
</g>
<!-- \\Altamira\\ChartDatum\\ChartDatumAbstract&#45;&gt;\\ArrayAccess -->
<g id="edge45" class="edge"><title>\\Altamira\\ChartDatum\\ChartDatumAbstract&#45;&gt;\\ArrayAccess</title>
<path fill="none" stroke="black" stroke-dasharray="1,5" d="M254.73,-1767.08C237.033,-1751.67 213.925,-1727.92 203,-1701.34 97.0942,-1443.67 167.724,-726.441 139,-449.341 123.541,-300.207 91.1967,-123.358 78.3888,-56.1338"/>
<polygon fill="none" stroke="black" points="81.8254,-55.4701 76.5066,-46.3071 74.9504,-56.787 81.8254,-55.4701"/>
</g>
<!-- \\Altamira\\ChartDatum\\TwoDimensionalPoint -->
<g id="node6" class="node"><title>\\Altamira\\ChartDatum\\TwoDimensionalPoint</title>
<a xlink:href="ChartDatum.TwoDimensionalPoint.html" xlink:title="TwoDimensionalPoint" target="_parent">
<polygon fill="none" stroke="black" points="583.921,-1803.34 442.079,-1803.34 442.079,-1767.34 583.921,-1767.34 583.921,-1803.34"/>
<text text-anchor="middle" x="513" y="-1780.94" font-family="Courier,monospace" font-size="11.00">TwoDimensionalPoint</text>
</a>
</g>
<!-- \\Altamira\\ChartDatum\\TwoDimensionalPoint&#45;&gt;\\Altamira\\ChartDatum\\ChartDatumAbstract -->
<g id="edge15" class="edge"><title>\\Altamira\\ChartDatum\\TwoDimensionalPoint&#45;&gt;\\Altamira\\ChartDatum\\ChartDatumAbstract</title>
<path fill="none" stroke="black" d="M442.078,-1785.34C415.222,-1785.34 384.433,-1785.34 356.953,-1785.34"/>
<polygon fill="none" stroke="black" points="356.598,-1781.84 346.598,-1785.34 356.598,-1788.84 356.598,-1781.84"/>
</g>
<!-- \\Altamira\\ChartDatum\\TwoDimensionalPointFactory -->
<g id="node7" class="node"><title>\\Altamira\\ChartDatum\\TwoDimensionalPointFactory</title>
<a xlink:href="ChartDatum.TwoDimensionalPointFactory.html" xlink:title="TwoDimensionalPointFactory" target="_parent">
<polygon fill="none" stroke="black" points="606.628,-1749.34 419.372,-1749.34 419.372,-1713.34 606.628,-1713.34 606.628,-1749.34"/>
<text text-anchor="middle" x="513" y="-1726.94" font-family="Courier,monospace" font-size="11.00">TwoDimensionalPointFactory</text>
</a>
</g>
<!-- \\Altamira\\ChartRenderer\\DefaultRenderer -->
<g id="node9" class="node"><title>\\Altamira\\ChartRenderer\\DefaultRenderer</title>
<a xlink:href="ChartRenderer.DefaultRenderer.html" xlink:title="DefaultRenderer" target="_parent">
<polygon fill="none" stroke="black" points="570.516,-1668.34 455.484,-1668.34 455.484,-1632.34 570.516,-1632.34 570.516,-1668.34"/>
<text text-anchor="middle" x="513" y="-1645.94" font-family="Courier,monospace" font-size="11.00">DefaultRenderer</text>
</a>
</g>
<!-- \\Altamira\\ChartRenderer\\RendererInterface -->
<g id="node10" class="node"><title>\\Altamira\\ChartRenderer\\RendererInterface</title>
<a xlink:href="ChartRenderer.RendererInterface.html" xlink:title="RendererInterface" target="_parent">
<polygon fill="none" stroke="black" points="343.218,-1641.34 214.782,-1641.34 214.782,-1605.34 343.218,-1605.34 343.218,-1641.34"/>
<text text-anchor="middle" x="279" y="-1618.94" font-family="Courier,monospace" font-size="11.00">RendererInterface</text>
</a>
</g>
<!-- \\Altamira\\ChartRenderer\\DefaultRenderer&#45;&gt;\\Altamira\\ChartRenderer\\RendererInterface -->
<g id="edge47" class="edge"><title>\\Altamira\\ChartRenderer\\DefaultRenderer&#45;&gt;\\Altamira\\ChartRenderer\\RendererInterface</title>
<path fill="none" stroke="black" stroke-dasharray="1,5" d="M455.246,-1643.74C424.611,-1640.17 386.438,-1635.73 353.548,-1631.9"/>
<polygon fill="none" stroke="black" points="353.862,-1628.41 343.524,-1630.73 353.053,-1635.37 353.862,-1628.41"/>
</g>
<!-- \\Altamira\\ChartRenderer\\TitleRenderer -->
<g id="node11" class="node"><title>\\Altamira\\ChartRenderer\\TitleRenderer</title>
<a xlink:href="ChartRenderer.TitleRenderer.html" xlink:title="TitleRenderer" target="_parent">
<polygon fill="none" stroke="black" points="563.814,-1614.34 462.186,-1614.34 462.186,-1578.34 563.814,-1578.34 563.814,-1614.34"/>
<text text-anchor="middle" x="513" y="-1591.94" font-family="Courier,monospace" font-size="11.00">TitleRenderer</text>
</a>
</g>
<!-- \\Altamira\\ChartRenderer\\TitleRenderer&#45;&gt;\\Altamira\\ChartRenderer\\RendererInterface -->
<g id="edge49" class="edge"><title>\\Altamira\\ChartRenderer\\TitleRenderer&#45;&gt;\\Altamira\\ChartRenderer\\RendererInterface</title>
<path fill="none" stroke="black" stroke-dasharray="1,5" d="M461.945,-1602.17C430.302,-1605.85 388.855,-1610.67 353.513,-1614.79"/>
<polygon fill="none" stroke="black" points="352.769,-1611.35 343.241,-1615.98 353.579,-1618.3 352.769,-1611.35"/>
</g>
<!-- \\Altamira\\JsWriter\\Ability\\Cursorable -->
<g id="node14" class="node"><title>\\Altamira\\JsWriter\\Ability\\Cursorable</title>
<a xlink:href="JsWriter.Ability.Cursorable.html" xlink:title="Cursorable" target="_parent">
<polygon fill="none" stroke="black" points="320.011,-1460.34 237.989,-1460.34 237.989,-1424.34 320.011,-1424.34 320.011,-1460.34"/>
<text text-anchor="middle" x="279" y="-1437.94" font-family="Courier,monospace" font-size="11.00">Cursorable</text>
</a>
</g>
<!-- \\Altamira\\JsWriter\\Ability\\Datable -->
<g id="node15" class="node"><title>\\Altamira\\JsWriter\\Ability\\Datable</title>
<a xlink:href="JsWriter.Ability.Datable.html" xlink:title="Datable" target="_parent">
<polygon fill="none" stroke="black" points="310.208,-1406.34 247.792,-1406.34 247.792,-1370.34 310.208,-1370.34 310.208,-1406.34"/>
<text text-anchor="middle" x="279" y="-1383.94" font-family="Courier,monospace" font-size="11.00">Datable</text>
</a>
</g>
<!-- \\Altamira\\JsWriter\\Ability\\Fillable -->
<g id="node16" class="node"><title>\\Altamira\\JsWriter\\Ability\\Fillable</title>
<a xlink:href="JsWriter.Ability.Fillable.html" xlink:title="Fillable" target="_parent">
<polygon fill="none" stroke="black" points="313.309,-1352.34 244.691,-1352.34 244.691,-1316.34 313.309,-1316.34 313.309,-1352.34"/>
<text text-anchor="middle" x="279" y="-1329.94" font-family="Courier,monospace" font-size="11.00">Fillable</text>
</a>
</g>
<!-- \\Altamira\\JsWriter\\Ability\\Griddable -->
<g id="node17" class="node"><title>\\Altamira\\JsWriter\\Ability\\Griddable</title>
<a xlink:href="JsWriter.Ability.Griddable.html" xlink:title="Griddable" target="_parent">
<polygon fill="none" stroke="black" points="316.911,-1298.34 241.089,-1298.34 241.089,-1262.34 316.911,-1262.34 316.911,-1298.34"/>
<text text-anchor="middle" x="279" y="-1275.94" font-family="Courier,monospace" font-size="11.00">Griddable</text>
</a>
</g>
<!-- \\Altamira\\JsWriter\\Ability\\Highlightable -->
<g id="node18" class="node"><title>\\Altamira\\JsWriter\\Ability\\Highlightable</title>
<a xlink:href="JsWriter.Ability.Highlightable.html" xlink:title="Highlightable" target="_parent">
<polygon fill="none" stroke="black" points="329.814,-1244.34 228.186,-1244.34 228.186,-1208.34 329.814,-1208.34 329.814,-1244.34"/>
<text text-anchor="middle" x="279" y="-1221.94" font-family="Courier,monospace" font-size="11.00">Highlightable</text>
</a>
</g>
<!-- \\Altamira\\JsWriter\\Ability\\Labelable -->
<g id="node19" class="node"><title>\\Altamira\\JsWriter\\Ability\\Labelable</title>
<a xlink:href="JsWriter.Ability.Labelable.html" xlink:title="Labelable" target="_parent">
<polygon fill="none" stroke="black" points="316.911,-1190.34 241.089,-1190.34 241.089,-1154.34 316.911,-1154.34 316.911,-1190.34"/>
<text text-anchor="middle" x="279" y="-1167.94" font-family="Courier,monospace" font-size="11.00">Labelable</text>
</a>
</g>
<!-- \\Altamira\\JsWriter\\Ability\\Legendable -->
<g id="node20" class="node"><title>\\Altamira\\JsWriter\\Ability\\Legendable</title>
<a xlink:href="JsWriter.Ability.Legendable.html" xlink:title="Legendable" target="_parent">
<polygon fill="none" stroke="black" points="320.011,-1136.34 237.989,-1136.34 237.989,-1100.34 320.011,-1100.34 320.011,-1136.34"/>
<text text-anchor="middle" x="279" y="-1113.94" font-family="Courier,monospace" font-size="11.00">Legendable</text>
</a>
</g>
<!-- \\Altamira\\JsWriter\\Ability\\Lineable -->
<g id="node21" class="node"><title>\\Altamira\\JsWriter\\Ability\\Lineable</title>
<a xlink:href="JsWriter.Ability.Lineable.html" xlink:title="Lineable" target="_parent">
<polygon fill="none" stroke="black" points="313.309,-1082.34 244.691,-1082.34 244.691,-1046.34 313.309,-1046.34 313.309,-1082.34"/>
<text text-anchor="middle" x="279" y="-1059.94" font-family="Courier,monospace" font-size="11.00">Lineable</text>
</a>
</g>
<!-- \\Altamira\\JsWriter\\Ability\\Shadowable -->
<g id="node22" class="node"><title>\\Altamira\\JsWriter\\Ability\\Shadowable</title>
<a xlink:href="JsWriter.Ability.Shadowable.html" xlink:title="Shadowable" target="_parent">
<polygon fill="none" stroke="black" points="320.011,-1028.34 237.989,-1028.34 237.989,-992.341 320.011,-992.341 320.011,-1028.34"/>
<text text-anchor="middle" x="279" y="-1005.94" font-family="Courier,monospace" font-size="11.00">Shadowable</text>
</a>
</g>
<!-- \\Altamira\\JsWriter\\Ability\\Zoomable -->
<g id="node23" class="node"><title>\\Altamira\\JsWriter\\Ability\\Zoomable</title>
<a xlink:href="JsWriter.Ability.Zoomable.html" xlink:title="Zoomable" target="_parent">
<polygon fill="none" stroke="black" points="313.309,-974.341 244.691,-974.341 244.691,-938.341 313.309,-938.341 313.309,-974.341"/>
<text text-anchor="middle" x="279" y="-951.941" font-family="Courier,monospace" font-size="11.00">Zoomable</text>
</a>
</g>
<!-- \\Altamira\\JsWriter\\Flot -->
<g id="node24" class="node"><title>\\Altamira\\JsWriter\\Flot</title>
<a xlink:href="JsWriter.Flot.html" xlink:title="Flot" target="_parent">
<polygon fill="none" stroke="black" points="540,-1244.34 486,-1244.34 486,-1208.34 540,-1208.34 540,-1244.34"/>
<text text-anchor="middle" x="513" y="-1221.94" font-family="Courier,monospace" font-size="11.00">Flot</text>
</a>
</g>
<!-- \\Altamira\\JsWriter\\Flot&#45;&gt;\\Altamira\\JsWriter\\Ability\\Cursorable -->
<g id="edge53" class="edge"><title>\\Altamira\\JsWriter\\Flot&#45;&gt;\\Altamira\\JsWriter\\Ability\\Cursorable</title>
<path fill="none" stroke="black" stroke-dasharray="1,5" d="M485.904,-1228.02C465.521,-1230.6 437.62,-1237.09 419,-1253.34 359.638,-1305.15 403.684,-1360.61 347,-1415.34 341.969,-1420.2 335.95,-1424.22 329.613,-1427.54"/>
<polygon fill="none" stroke="black" points="327.776,-1424.54 320.179,-1431.92 330.723,-1430.88 327.776,-1424.54"/>
</g>
<!-- \\Altamira\\JsWriter\\Flot&#45;&gt;\\Altamira\\JsWriter\\Ability\\Datable -->
<g id="edge55" class="edge"><title>\\Altamira\\JsWriter\\Flot&#45;&gt;\\Altamira\\JsWriter\\Ability\\Datable</title>
<path fill="none" stroke="black" stroke-dasharray="1,5" d="M485.798,-1229.04C465.885,-1232.18 438.66,-1238.93 419,-1253.34 372.477,-1287.45 391.751,-1324.93 347,-1361.34 339.047,-1367.81 329.341,-1372.9 319.813,-1376.83"/>
<polygon fill="none" stroke="black" points="318.53,-1373.58 310.415,-1380.39 321.007,-1380.13 318.53,-1373.58"/>
</g>
<!-- \\Altamira\\JsWriter\\Flot&#45;&gt;\\Altamira\\JsWriter\\Ability\\Fillable -->
<g id="edge57" class="edge"><title>\\Altamira\\JsWriter\\Flot&#45;&gt;\\Altamira\\JsWriter\\Ability\\Fillable</title>
<path fill="none" stroke="black" stroke-dasharray="1,5" d="M485.806,-1231.29C466.638,-1235.54 440.36,-1242.68 419,-1253.34 383.212,-1271.21 381.845,-1287.7 347,-1307.34 339.462,-1311.59 331.12,-1315.51 322.955,-1318.97"/>
<polygon fill="none" stroke="black" points="321.454,-1315.8 313.51,-1322.81 324.092,-1322.29 321.454,-1315.8"/>
</g>
<!-- \\Altamira\\JsWriter\\Flot&#45;&gt;\\Altamira\\JsWriter\\Ability\\Griddable -->
<g id="edge59" class="edge"><title>\\Altamira\\JsWriter\\Flot&#45;&gt;\\Altamira\\JsWriter\\Ability\\Griddable</title>
<path fill="none" stroke="black" stroke-dasharray="1,5" d="M485.838,-1232.43C447.226,-1241.42 374.399,-1258.37 326.54,-1269.51"/>
<polygon fill="none" stroke="black" points="325.674,-1266.12 316.728,-1271.79 327.261,-1272.93 325.674,-1266.12"/>
</g>
<!-- \\Altamira\\JsWriter\\Flot&#45;&gt;\\Altamira\\JsWriter\\Ability\\Highlightable -->
<g id="edge61" class="edge"><title>\\Altamira\\JsWriter\\Flot&#45;&gt;\\Altamira\\JsWriter\\Ability\\Highlightable</title>
<path fill="none" stroke="black" stroke-dasharray="1,5" d="M485.838,-1226.34C450.73,-1226.34 387.333,-1226.34 340.139,-1226.34"/>
<polygon fill="none" stroke="black" points="340.03,-1222.84 330.03,-1226.34 340.03,-1229.84 340.03,-1222.84"/>
</g>
<!-- \\Altamira\\JsWriter\\Flot&#45;&gt;\\Altamira\\JsWriter\\Ability\\Labelable -->
<g id="edge69" class="edge"><title>\\Altamira\\JsWriter\\Flot&#45;&gt;\\Altamira\\JsWriter\\Ability\\Labelable</title>
<path fill="none" stroke="black" stroke-dasharray="1,5" d="M485.838,-1220.25C447.226,-1211.26 374.399,-1194.31 326.54,-1183.17"/>
<polygon fill="none" stroke="black" points="327.261,-1179.75 316.728,-1180.89 325.674,-1186.57 327.261,-1179.75"/>
</g>
<!-- \\Altamira\\JsWriter\\Flot&#45;&gt;\\Altamira\\JsWriter\\Ability\\Legendable -->
<g id="edge63" class="edge"><title>\\Altamira\\JsWriter\\Flot&#45;&gt;\\Altamira\\JsWriter\\Ability\\Legendable</title>
<path fill="none" stroke="black" stroke-dasharray="1,5" d="M485.99,-1212.84C453.712,-1196.25 396.832,-1167.58 347,-1145.34 341.363,-1142.83 335.417,-1140.28 329.49,-1137.81"/>
<polygon fill="none" stroke="black" points="330.816,-1134.57 320.236,-1134 328.151,-1141.04 330.816,-1134.57"/>
</g>
<!-- \\Altamira\\JsWriter\\Flot&#45;&gt;\\Altamira\\JsWriter\\Ability\\Lineable -->
<g id="edge71" class="edge"><title>\\Altamira\\JsWriter\\Flot&#45;&gt;\\Altamira\\JsWriter\\Ability\\Lineable</title>
<path fill="none" stroke="black" stroke-dasharray="1,5" d="M493.62,-1208.08C464.558,-1180 405.289,-1125.84 347,-1091.34 339.476,-1086.89 331.08,-1082.86 322.847,-1079.35"/>
<polygon fill="none" stroke="black" points="323.899,-1076 313.317,-1075.48 321.265,-1082.48 323.899,-1076"/>
</g>
<!-- \\Altamira\\JsWriter\\Flot&#45;&gt;\\Altamira\\JsWriter\\Ability\\Shadowable -->
<g id="edge65" class="edge"><title>\\Altamira\\JsWriter\\Flot&#45;&gt;\\Altamira\\JsWriter\\Ability\\Shadowable</title>
<path fill="none" stroke="black" stroke-dasharray="1,5" d="M500.524,-1208.21C476.335,-1171.32 416.578,-1086.81 347,-1037.34 341.701,-1033.57 335.801,-1030.22 329.76,-1027.28"/>
<polygon fill="none" stroke="black" points="330.772,-1023.9 320.217,-1022.98 327.897,-1030.28 330.772,-1023.9"/>
</g>
<!-- \\Altamira\\JsWriter\\Flot&#45;&gt;\\Altamira\\JsWriter\\Ability\\Zoomable -->
<g id="edge67" class="edge"><title>\\Altamira\\JsWriter\\Flot&#45;&gt;\\Altamira\\JsWriter\\Ability\\Zoomable</title>
<path fill="none" stroke="black" stroke-dasharray="1,5" d="M504.22,-1208.09C484.395,-1163.61 427.776,-1048.49 347,-983.341 339.907,-977.62 331.444,-972.972 322.959,-969.249"/>
<polygon fill="none" stroke="black" points="324.026,-965.906 313.442,-965.429 321.419,-972.402 324.026,-965.906"/>
</g>
<!-- \\Altamira\\JsWriter\\JsWriterAbstract -->
<g id="node26" class="node"><title>\\Altamira\\JsWriter\\JsWriterAbstract</title>
<a xlink:href="JsWriter.JsWriterAbstract.html" xlink:title="«abstract»&lt;br/&gt;JsWriterAbstract" target="_parent">
<polygon fill="none" stroke="black" points="340,-1533.34 218,-1533.34 218,-1497.34 340,-1497.34 340,-1533.34"/>
<text text-anchor="start" x="246" y="-1516.84" font-family="Courier,monospace" font-size="11.00">«abstract»</text>
<text text-anchor="start" x="226.5" y="-1505.84" font-family="Courier,monospace" font-size="11.00">JsWriterAbstract</text>
</a>
</g>
<!-- \\Altamira\\JsWriter\\Flot&#45;&gt;\\Altamira\\JsWriter\\JsWriterAbstract -->
<g id="edge21" class="edge"><title>\\Altamira\\JsWriter\\Flot&#45;&gt;\\Altamira\\JsWriter\\JsWriterAbstract</title>
<path fill="none" stroke="black" d="M485.746,-1227.35C464.995,-1229.54 436.673,-1235.82 419,-1253.34 342.222,-1329.44 419.894,-1408.79 347.284,-1491.57"/>
<polygon fill="none" stroke="black" points="344.549,-1489.37 340.291,-1499.07 349.669,-1494.14 344.549,-1489.37"/>
</g>
<!-- \\Altamira\\JsWriter\\JqPlot -->
<g id="node25" class="node"><title>\\Altamira\\JsWriter\\JqPlot</title>
<a xlink:href="JsWriter.JqPlot.html" xlink:title="JqPlot" target="_parent">
<polygon fill="none" stroke="black" points="540.608,-1298.34 485.392,-1298.34 485.392,-1262.34 540.608,-1262.34 540.608,-1298.34"/>
<text text-anchor="middle" x="513" y="-1275.94" font-family="Courier,monospace" font-size="11.00">JqPlot</text>
</a>
</g>
<!-- \\Altamira\\JsWriter\\JqPlot&#45;&gt;\\Altamira\\JsWriter\\Ability\\Cursorable -->
<g id="edge73" class="edge"><title>\\Altamira\\JsWriter\\JqPlot&#45;&gt;\\Altamira\\JsWriter\\Ability\\Cursorable</title>
<path fill="none" stroke="black" stroke-dasharray="1,5" d="M493.62,-1298.6C464.558,-1326.68 405.289,-1380.84 347,-1415.34 341.546,-1418.57 335.635,-1421.57 329.66,-1424.32"/>
<polygon fill="none" stroke="black" points="328.04,-1421.21 320.273,-1428.41 330.839,-1427.62 328.04,-1421.21"/>
</g>
<!-- \\Altamira\\JsWriter\\JqPlot&#45;&gt;\\Altamira\\JsWriter\\Ability\\Datable -->
<g id="edge75" class="edge"><title>\\Altamira\\JsWriter\\JqPlot&#45;&gt;\\Altamira\\JsWriter\\Ability\\Datable</title>
<path fill="none" stroke="black" stroke-dasharray="1,5" d="M485.135,-1294.28C452.714,-1310.94 396.395,-1339.3 347,-1361.34 338.253,-1365.24 328.762,-1369.22 319.749,-1372.88"/>
<polygon fill="none" stroke="black" points="318.19,-1369.74 310.215,-1376.71 320.799,-1376.23 318.19,-1369.74"/>
</g>
<!-- \\Altamira\\JsWriter\\JqPlot&#45;&gt;\\Altamira\\JsWriter\\Ability\\Fillable -->
<g id="edge77" class="edge"><title>\\Altamira\\JsWriter\\JqPlot&#45;&gt;\\Altamira\\JsWriter\\Ability\\Fillable</title>
<path fill="none" stroke="black" stroke-dasharray="1,5" d="M485.387,-1286.53C445.801,-1295.75 370.976,-1313.17 323.399,-1324.24"/>
<polygon fill="none" stroke="black" points="322.337,-1320.89 313.39,-1326.57 323.924,-1327.71 322.337,-1320.89"/>
</g>
<!-- \\Altamira\\JsWriter\\JqPlot&#45;&gt;\\Altamira\\JsWriter\\Ability\\Griddable -->
<g id="edge79" class="edge"><title>\\Altamira\\JsWriter\\JqPlot&#45;&gt;\\Altamira\\JsWriter\\Ability\\Griddable</title>
<path fill="none" stroke="black" stroke-dasharray="1,5" d="M485.387,-1280.34C446.799,-1280.34 374.726,-1280.34 327.048,-1280.34"/>
<polygon fill="none" stroke="black" points="326.97,-1276.84 316.969,-1280.34 326.969,-1283.84 326.97,-1276.84"/>
</g>
<!-- \\Altamira\\JsWriter\\JqPlot&#45;&gt;\\Altamira\\JsWriter\\Ability\\Highlightable -->
<g id="edge81" class="edge"><title>\\Altamira\\JsWriter\\JqPlot&#45;&gt;\\Altamira\\JsWriter\\Ability\\Highlightable</title>
<path fill="none" stroke="black" stroke-dasharray="1,5" d="M485.387,-1274.15C450.051,-1265.92 386.638,-1251.16 339.59,-1240.21"/>
<polygon fill="none" stroke="black" points="340.347,-1236.79 329.814,-1237.94 338.761,-1243.61 340.347,-1236.79"/>
</g>
<!-- \\Altamira\\JsWriter\\JqPlot&#45;&gt;\\Altamira\\JsWriter\\Ability\\Labelable -->
<g id="edge87" class="edge"><title>\\Altamira\\JsWriter\\JqPlot&#45;&gt;\\Altamira\\JsWriter\\Ability\\Labelable</title>
<path fill="none" stroke="black" stroke-dasharray="1,5" d="M484.992,-1275.21C465.899,-1270.94 440.059,-1263.85 419,-1253.34 383.212,-1235.47 381.845,-1218.98 347,-1199.34 340.541,-1195.7 333.491,-1192.3 326.469,-1189.22"/>
<polygon fill="none" stroke="black" points="327.543,-1185.88 316.967,-1185.24 324.835,-1192.34 327.543,-1185.88"/>
</g>
<!-- \\Altamira\\JsWriter\\JqPlot&#45;&gt;\\Altamira\\JsWriter\\Ability\\Legendable -->
<g id="edge83" class="edge"><title>\\Altamira\\JsWriter\\JqPlot&#45;&gt;\\Altamira\\JsWriter\\Ability\\Legendable</title>
<path fill="none" stroke="black" stroke-dasharray="1,5" d="M485.384,-1277.58C465.509,-1274.41 438.524,-1267.66 419,-1253.34 372.477,-1219.23 391.751,-1181.75 347,-1145.34 341.706,-1141.03 335.634,-1137.34 329.356,-1134.19"/>
<polygon fill="none" stroke="black" points="330.626,-1130.92 320.075,-1129.95 327.721,-1137.29 330.626,-1130.92"/>
</g>
<!-- \\Altamira\\JsWriter\\JqPlot&#45;&gt;\\Altamira\\JsWriter\\Ability\\Lineable -->
<g id="edge89" class="edge"><title>\\Altamira\\JsWriter\\JqPlot&#45;&gt;\\Altamira\\JsWriter\\Ability\\Lineable</title>
<path fill="none" stroke="black" stroke-dasharray="1,5" d="M485.068,-1278.56C464.763,-1275.9 437.367,-1269.37 419,-1253.34 359.638,-1201.53 403.684,-1146.07 347,-1091.34 340.242,-1084.82 331.702,-1079.8 323.002,-1075.96"/>
<polygon fill="none" stroke="black" points="324.163,-1072.66 313.576,-1072.25 321.598,-1079.17 324.163,-1072.66"/>
</g>
<!-- \\Altamira\\JsWriter\\JqPlot&#45;&gt;\\Altamira\\JsWriter\\Ability\\Shadowable -->
<g id="edge85" class="edge"><title>\\Altamira\\JsWriter\\JqPlot&#45;&gt;\\Altamira\\JsWriter\\Ability\\Shadowable</title>
<path fill="none" stroke="black" stroke-dasharray="1,5" d="M485.044,-1279.09C464.454,-1276.74 436.694,-1270.35 419,-1253.34 346.057,-1183.2 416.327,-1111.05 347,-1037.34 342.151,-1032.18 336.184,-1027.99 329.827,-1024.58"/>
<polygon fill="none" stroke="black" points="330.86,-1021.2 320.319,-1020.14 327.894,-1027.54 330.86,-1021.2"/>
</g>
<!-- \\Altamira\\JsWriter\\JqPlot&#45;&gt;\\Altamira\\JsWriter\\JsWriterAbstract -->
<g id="edge23" class="edge"><title>\\Altamira\\JsWriter\\JqPlot&#45;&gt;\\Altamira\\JsWriter\\JsWriterAbstract</title>
<path fill="none" stroke="black" d="M502.902,-1298.41C482.151,-1337.88 427.429,-1432.69 348.321,-1491.74"/>
<polygon fill="none" stroke="black" points="346.139,-1489 340.084,-1497.69 350.239,-1494.67 346.139,-1489"/>
</g>
<!-- \\Altamira\\Type\\Flot\\Bar -->
<g id="node30" class="node"><title>\\Altamira\\Type\\Flot\\Bar</title>
<a xlink:href="Type.Flot.Bar.html" xlink:title="Bar" target="_parent">
<polygon fill="none" stroke="black" points="540,-856.341 486,-856.341 486,-820.341 540,-820.341 540,-856.341"/>
<text text-anchor="middle" x="513" y="-833.941" font-family="Courier,monospace" font-size="11.00">Bar</text>
</a>
</g>
<!-- \\Altamira\\Type\\TypeAbstract -->
<g id="node40" class="node"><title>\\Altamira\\Type\\TypeAbstract</title>
<a xlink:href="Type.TypeAbstract.html" xlink:title="«abstract»&lt;br/&gt;TypeAbstract" target="_parent">
<polygon fill="none" stroke="black" points="120,-713.341 24,-713.341 24,-677.341 120,-677.341 120,-713.341"/>
<text text-anchor="start" x="39" y="-696.841" font-family="Courier,monospace" font-size="11.00">«abstract»</text>
<text text-anchor="start" x="32.5" y="-685.841" font-family="Courier,monospace" font-size="11.00">TypeAbstract</text>
</a>
</g>
<!-- \\Altamira\\Type\\Flot\\Bar&#45;&gt;\\Altamira\\Type\\TypeAbstract -->
<g id="edge27" class="edge"><title>\\Altamira\\Type\\Flot\\Bar&#45;&gt;\\Altamira\\Type\\TypeAbstract</title>
<path fill="none" stroke="black" d="M485.879,-836.274C431.512,-831.297 302.94,-815.982 203,-776.341 167.023,-762.07 129.934,-737.844 104.626,-719.595"/>
<polygon fill="none" stroke="black" points="106.651,-716.74 96.5137,-713.659 102.517,-722.389 106.651,-716.74"/>
</g>
<!-- \\Altamira\\Type\\Flot\\Bubble -->
<g id="node31" class="node"><title>\\Altamira\\Type\\Flot\\Bubble</title>
<a xlink:href="Type.Flot.Bubble.html" xlink:title="Bubble" target="_parent">
<polygon fill="none" stroke="black" points="540.608,-748.341 485.392,-748.341 485.392,-712.341 540.608,-712.341 540.608,-748.341"/>
<text text-anchor="middle" x="513" y="-725.941" font-family="Courier,monospace" font-size="11.00">Bubble</text>
</a>
</g>
<!-- \\Altamira\\Type\\Flot\\Bubble&#45;&gt;\\Altamira\\Type\\TypeAbstract -->
<g id="edge29" class="edge"><title>\\Altamira\\Type\\Flot\\Bubble&#45;&gt;\\Altamira\\Type\\TypeAbstract</title>
<path fill="none" stroke="black" d="M485.053,-723.383C442.008,-712.926 354.945,-694.46 280,-695.341"/>
</g>
<!-- \\Altamira\\Type\\Flot\\Donut -->
<g id="node32" class="node"><title>\\Altamira\\Type\\Flot\\Donut</title>
<a xlink:href="Type.Flot.Donut.html" xlink:title="Donut" target="_parent">
<polygon fill="none" stroke="black" points="540,-802.341 486,-802.341 486,-766.341 540,-766.341 540,-802.341"/>
<text text-anchor="middle" x="513" y="-779.941" font-family="Courier,monospace" font-size="11.00">Donut</text>
</a>
</g>
<!-- \\Altamira\\Type\\Flot\\Pie -->
<g id="node33" class="node"><title>\\Altamira\\Type\\Flot\\Pie</title>
<a xlink:href="Type.Flot.Pie.html" xlink:title="Pie" target="_parent">
<polygon fill="none" stroke="black" points="306,-767.341 252,-767.341 252,-731.341 306,-731.341 306,-767.341"/>
<text text-anchor="middle" x="279" y="-744.941" font-family="Courier,monospace" font-size="11.00">Pie</text>
</a>
</g>
<!-- \\Altamira\\Type\\Flot\\Donut&#45;&gt;\\Altamira\\Type\\Flot\\Pie -->
<g id="edge31" class="edge"><title>\\Altamira\\Type\\Flot\\Donut&#45;&gt;\\Altamira\\Type\\Flot\\Pie</title>
<path fill="none" stroke="black" d="M485.838,-780.394C444.303,-774.128 363.175,-761.888 316.125,-754.79"/>
<polygon fill="none" stroke="black" points="316.477,-751.304 306.067,-753.273 315.433,-758.226 316.477,-751.304"/>
</g>
<!-- \\Altamira\\Type\\Flot\\Pie&#45;&gt;\\Altamira\\Type\\TypeAbstract -->
<g id="edge33" class="edge"><title>\\Altamira\\Type\\Flot\\Pie&#45;&gt;\\Altamira\\Type\\TypeAbstract</title>
<path fill="none" stroke="black" d="M251.62,-742.391C221.014,-734.33 169.667,-720.804 129.86,-710.318"/>
<polygon fill="none" stroke="black" points="130.57,-706.886 120.008,-707.723 128.787,-713.655 130.57,-706.886"/>
</g>
<!-- \\Altamira\\Type\\JqPlot\\Bar -->
<g id="node35" class="node"><title>\\Altamira\\Type\\JqPlot\\Bar</title>
<a xlink:href="Type.JqPlot.Bar.html" xlink:title="Bar" target="_parent">
<polygon fill="none" stroke="black" points="540,-667.341 486,-667.341 486,-631.341 540,-631.341 540,-667.341"/>
<text text-anchor="middle" x="513" y="-644.941" font-family="Courier,monospace" font-size="11.00">Bar</text>
</a>
</g>
<!-- \\Altamira\\Type\\JqPlot\\Bar&#45;&gt;\\Altamira\\Type\\TypeAbstract -->
<g id="edge35" class="edge"><title>\\Altamira\\Type\\JqPlot\\Bar&#45;&gt;\\Altamira\\Type\\TypeAbstract</title>
<path fill="none" stroke="black" d="M485.891,-657.787C443.291,-670.823 355.959,-694.448 280,-695.341"/>
<path fill="none" stroke="black" d="M278,-695.341C228.133,-695.926 171.437,-695.871 130.329,-695.701"/>
<polygon fill="none" stroke="black" points="130.243,-692.2 120.227,-695.655 130.211,-699.2 130.243,-692.2"/>
</g>
<!-- \\Altamira\\Type\\JqPlot\\Bubble -->
<g id="node36" class="node"><title>\\Altamira\\Type\\JqPlot\\Bubble</title>
<a xlink:href="Type.JqPlot.Bubble.html" xlink:title="Bubble" target="_parent">
<polygon fill="none" stroke="black" points="540.608,-505.341 485.392,-505.341 485.392,-469.341 540.608,-469.341 540.608,-505.341"/>
<text text-anchor="middle" x="513" y="-482.941" font-family="Courier,monospace" font-size="11.00">Bubble</text>
</a>
</g>
<!-- \\Altamira\\Type\\JqPlot\\Bubble&#45;&gt;\\Altamira\\Type\\TypeAbstract -->
<g id="edge37" class="edge"><title>\\Altamira\\Type\\JqPlot\\Bubble&#45;&gt;\\Altamira\\Type\\TypeAbstract</title>
<path fill="none" stroke="black" d="M278,-541.341C239.814,-556.471 232.946,-567.227 203,-595.341 170.307,-626.033 175.941,-647.92 139,-673.341 135.934,-675.45 132.65,-677.371 129.245,-679.117"/>
<polygon fill="none" stroke="black" points="127.65,-675.998 120.015,-683.343 130.564,-682.362 127.65,-675.998"/>
<path fill="none" stroke="black" d="M485.111,-495.039C466.523,-500.388 441.235,-507.716 419,-514.341 386.932,-523.894 379.886,-530.169 347,-536.341 317.652,-541.848 307.761,-530.341 280,-541.341"/>
</g>
<!-- \\Altamira\\Type\\JqPlot\\Donut -->
<g id="node37" class="node"><title>\\Altamira\\Type\\JqPlot\\Donut</title>
<a xlink:href="Type.JqPlot.Donut.html" xlink:title="Donut" target="_parent">
<polygon fill="none" stroke="black" points="540,-613.341 486,-613.341 486,-577.341 540,-577.341 540,-613.341"/>
<text text-anchor="middle" x="513" y="-590.941" font-family="Courier,monospace" font-size="11.00">Donut</text>
</a>
</g>
<!-- \\Altamira\\Type\\JqPlot\\Pie -->
<g id="node38" class="node"><title>\\Altamira\\Type\\JqPlot\\Pie</title>
<a xlink:href="Type.JqPlot.Pie.html" xlink:title="Pie" target="_parent">
<polygon fill="none" stroke="black" points="306,-640.341 252,-640.341 252,-604.341 306,-604.341 306,-640.341"/>
<text text-anchor="middle" x="279" y="-617.941" font-family="Courier,monospace" font-size="11.00">Pie</text>
</a>
</g>
<!-- \\Altamira\\Type\\JqPlot\\Donut&#45;&gt;\\Altamira\\Type\\JqPlot\\Pie -->
<g id="edge39" class="edge"><title>\\Altamira\\Type\\JqPlot\\Donut&#45;&gt;\\Altamira\\Type\\JqPlot\\Pie</title>
<path fill="none" stroke="black" d="M485.838,-598.385C444.303,-603.219 363.175,-612.661 316.125,-618.136"/>
<polygon fill="none" stroke="black" points="315.595,-614.674 306.067,-619.307 316.404,-621.627 315.595,-614.674"/>
</g>
<!-- \\Altamira\\Type\\JqPlot\\Pie&#45;&gt;\\Altamira\\Type\\TypeAbstract -->
<g id="edge41" class="edge"><title>\\Altamira\\Type\\JqPlot\\Pie&#45;&gt;\\Altamira\\Type\\TypeAbstract</title>
<path fill="none" stroke="black" d="M251.674,-629.091C237.156,-633.055 218.902,-638.439 203,-644.341 173.723,-655.207 168.074,-661.943 139,-673.341 135.964,-674.531 132.834,-675.715 129.664,-676.88"/>
<polygon fill="none" stroke="black" points="128.321,-673.643 120.087,-680.31 130.681,-680.233 128.321,-673.643"/>
</g>
<!-- \\Altamira\\Type\\JqPlot\\Stacked -->
<g id="node39" class="node"><title>\\Altamira\\Type\\JqPlot\\Stacked</title>
<a xlink:href="Type.JqPlot.Stacked.html" xlink:title="Stacked" target="_parent">
<polygon fill="none" stroke="black" points="544.208,-559.341 481.792,-559.341 481.792,-523.341 544.208,-523.341 544.208,-559.341"/>
<text text-anchor="middle" x="513" y="-536.941" font-family="Courier,monospace" font-size="11.00">Stacked</text>
</a>
</g>
<!-- \\Altamira\\Type\\JqPlot\\Stacked&#45;&gt;\\Altamira\\Type\\TypeAbstract -->
<g id="edge43" class="edge"><title>\\Altamira\\Type\\JqPlot\\Stacked&#45;&gt;\\Altamira\\Type\\TypeAbstract</title>
<path fill="none" stroke="black" d="M481.869,-540.108C423.309,-537.894 298.255,-534.107 280,-541.341"/>
</g>
<!-- \\Altamira\\Chart -->
<g id="node43" class="node"><title>\\Altamira\\Chart</title>
<a xlink:href="Chart.html" xlink:title="Chart" target="_parent">
<polygon fill="none" stroke="black" points="540,-445.341 486,-445.341 486,-409.341 540,-409.341 540,-445.341"/>
<text text-anchor="middle" x="513" y="-422.941" font-family="Courier,monospace" font-size="11.00">Chart</text>
</a>
</g>
<!-- \\Altamira\\ChartIterator -->
<g id="node44" class="node"><title>\\Altamira\\ChartIterator</title>
<a xlink:href="ChartIterator.html" xlink:title="ChartIterator" target="_parent">
<polygon fill="none" stroke="black" points="563.814,-283.341 462.186,-283.341 462.186,-247.341 563.814,-247.341 563.814,-283.341"/>
<text text-anchor="middle" x="513" y="-260.941" font-family="Courier,monospace" font-size="11.00">ChartIterator</text>
</a>
</g>
<!-- \\ArrayIterator -->
<g id="node53" class="node"><title>\\ArrayIterator</title>
<ellipse fill="none" stroke="black" cx="279" cy="-51.3405" rx="64.8089" ry="18"/>
<text text-anchor="middle" x="279" y="-45.7405" font-family="Times,serif" font-size="14.00" fill="gray">\ArrayIterator</text>
</g>
<!-- \\Altamira\\ChartIterator&#45;&gt;\\ArrayIterator -->
<g id="edge17" class="edge"><title>\\Altamira\\ChartIterator&#45;&gt;\\ArrayIterator</title>
<path fill="none" stroke="black" d="M462.041,-257.159C447.288,-253.133 431.704,-247.164 419,-238.341 358.407,-196.254 313.601,-119.224 292.842,-78.3999"/>
<polygon fill="none" stroke="black" points="295.908,-76.7066 288.317,-69.3162 289.643,-79.8277 295.908,-76.7066"/>
</g>
<!-- \\Altamira\\ChartRenderer -->
<g id="node45" class="node"><title>\\Altamira\\ChartRenderer</title>
<a xlink:href="ChartRenderer.html" xlink:title="ChartRenderer" target="_parent">
<polygon fill="none" stroke="black" points="563.814,-337.341 462.186,-337.341 462.186,-301.341 563.814,-301.341 563.814,-337.341"/>
<text text-anchor="middle" x="513" y="-314.941" font-family="Courier,monospace" font-size="11.00">ChartRenderer</text>
</a>
</g>
<!-- \\Altamira\\Config -->
<g id="node46" class="node"><title>\\Altamira\\Config</title>
<a xlink:href="Config.html" xlink:title="Config" target="_parent">
<polygon fill="none" stroke="black" points="540.608,-175.341 485.392,-175.341 485.392,-139.341 540.608,-139.341 540.608,-175.341"/>
<text text-anchor="middle" x="513" y="-152.941" font-family="Courier,monospace" font-size="11.00">Config</text>
</a>
</g>
<!-- \\Altamira\\Config&#45;&gt;\\ArrayAccess -->
<g id="edge51" class="edge"><title>\\Altamira\\Config&#45;&gt;\\ArrayAccess</title>
<path fill="none" stroke="black" stroke-dasharray="1,5" d="M485.005,-154.463C465.189,-151.241 438.45,-144.473 419,-130.341 372.926,-96.8641 397.328,-50.9958 347,-24.3405 278.387,11.9989 185.899,0.379572 127.862,-12.8194"/>
<polygon fill="none" stroke="black" points="126.718,-9.49355 117.794,-15.2039 128.331,-16.3051 126.718,-9.49355"/>
</g>
<!-- \\Altamira\\FilesRenderer -->
<g id="node47" class="node"><title>\\Altamira\\FilesRenderer</title>
<a xlink:href="FilesRenderer.html" xlink:title="FilesRenderer" target="_parent">
<polygon fill="none" stroke="black" points="563.814,-229.341 462.186,-229.341 462.186,-193.341 563.814,-193.341 563.814,-229.341"/>
<text text-anchor="middle" x="513" y="-206.941" font-family="Courier,monospace" font-size="11.00">FilesRenderer</text>
</a>
</g>
<!-- \\Altamira\\FilesRenderer&#45;&gt;\\ArrayIterator -->
<g id="edge19" class="edge"><title>\\Altamira\\FilesRenderer&#45;&gt;\\ArrayIterator</title>
<path fill="none" stroke="black" d="M461.937,-201.538C447.495,-197.478 432.109,-191.898 419,-184.341 370.07,-156.133 325.132,-107.159 300.261,-77.1605"/>
<polygon fill="none" stroke="black" points="302.827,-74.769 293.792,-69.2357 297.405,-79.1957 302.827,-74.769"/>
</g>
<!-- \\Altamira\\ScriptsRenderer -->
<g id="node48" class="node"><title>\\Altamira\\ScriptsRenderer</title>
<a xlink:href="ScriptsRenderer.html" xlink:title="ScriptsRenderer" target="_parent">
<polygon fill="none" stroke="black" points="570.516,-391.341 455.484,-391.341 455.484,-355.341 570.516,-355.341 570.516,-391.341"/>
<text text-anchor="middle" x="513" y="-368.941" font-family="Courier,monospace" font-size="11.00">ScriptsRenderer</text>
</a>
</g>
<!-- \\Altamira\\ScriptsRenderer&#45;&gt;\\ArrayIterator -->
<g id="edge25" class="edge"><title>\\Altamira\\ScriptsRenderer&#45;&gt;\\ArrayIterator</title>
<path fill="none" stroke="black" d="M455.076,-364.984C442.149,-360.983 429.231,-355.072 419,-346.341 334.067,-273.852 297.5,-137.964 285.186,-79.3875"/>
<polygon fill="none" stroke="black" points="288.575,-78.4902 283.162,-69.3823 281.714,-79.8777 288.575,-78.4902"/>
</g>
<!-- \\Altamira\\Series -->
<g id="node49" class="node"><title>\\Altamira\\Series</title>
<a xlink:href="Series.html" xlink:title="Series" target="_parent">
<polygon fill="none" stroke="black" points="540.608,-121.341 485.392,-121.341 485.392,-85.3405 540.608,-85.3405 540.608,-121.341"/>
<text text-anchor="middle" x="513" y="-98.9405" font-family="Courier,monospace" font-size="11.00">Series</text>
</a>
</g>
</g>
</svg>
